<?xml version="1.0" encoding="utf-8"?>
<!-- Generator: Adobe Illustrator 16.0.0, SVG Export Plug-In . SVG Version: 6.00 Build 0)  -->
<!DOCTYPE svg PUBLIC "-//W3C//DTD SVG 1.1//EN" "http://www.w3.org/Graphics/SVG/1.1/DTD/svg11.dtd">
<svg version="1.1" id="Layer_1" xmlns="http://www.w3.org/2000/svg" xmlns:xlink="http://www.w3.org/1999/xlink" x="0px" y="0px"
	 width="1952px" height="2018px" viewBox="0 0 1952 2018" enable-background="new 0 0 1952 2018" xml:space="preserve">
<g transform="translate(0.000000,2018.000000) scale(0.100000,-0.100000)">
	<path fill="#F1EA69" stroke="#F1EA69" stroke-width="80" stroke-miterlimit="10" d="M3622.683,19823.34
		c-186.167-60.43-266.094-220.277-183.242-362.586c50.684-86.75,155.952-130.605,328.476-137.434
		c105.264-4.871,121.836-2.918,199.814,21.445c91.616,28.262,96.489,28.262,183.242-8.777
		c88.691-37.031,165.698-40.938,282.661-15.586c164.722,36.062,151.079,37.031,220.278-19.498
		c34.116-27.291,93.569-65.307,132.559-83.834c78.955-38.008,264.15-83.816,306.06-75.039c54.58,10.715,70.181-1.953,136.46-109.168
		c34.111-55.562,67.256-102.344,73.101-102.344s35.088-23.398,65.308-51.66c67.251-62.383,70.181-83.828,21.445-154.01
		c-55.562-80.898-65.308-127.682-70.181-327.494c-7.793-287.539,20.464-455.191,90.645-537.062
		c43.862-51.664,92.598-77,182.271-95.527c72.124-15.59,84.805-20.463,84.805-32.162c0-11.693-120.869-96.49-165.703-116.963
		c-22.422-9.75-98.447-59.453-168.628-109.17c-108.188-76.998-169.595-132.553-380.137-345.039
		c-139.38-139.381-308.003-316.777-375.259-394.756c-140.352-159.854-182.261-202.744-257.314-258.297
		c-64.326-49.715-106.25-118.914-144.258-236.859c-45.811-141.333-61.401-251.47-55.557-382.075
		c6.821-130.615,30.21-228.086,84.8-350.894c21.445-46.792,37.036-91.626,34.116-99.419c-2.925-6.826-31.196-27.29-63.359-44.844
		c-72.129-39.961-135.483-110.137-160.825-178.369c-16.572-44.834-19.492-76.997-19.492-208.579
		c0-203.716,23.389-308.984,98.442-438.617c27.29-47.764,59.463-104.293,70.181-124.771c10.718-19.492,34.111-45.801,51.655-58.48
		c17.544-11.689,50.688-45.801,74.082-75.045c23.389-29.238,55.552-66.283,70.171-82.846c14.624-15.605,42.891-50.689,61.406-77.979
		c19.492-26.318,112.09-121.836,205.669-212.49c178.369-170.576,355.767-367.457,372.339-414.254
		c23.384-64.326,201.753-253.422,268.042-283.633c71.152-32.162,166.67-22.416,203.706,21.445
		c15.601,19.492,30.22,21.445,30.22,4.873c0-6.826-38.018-80.898-83.828-163.744c-201.768-369.42-459.082-949.365-632.578-1427.939
		c-71.157-195.924-66.284-190.068-161.807-190.068c-62.373,0-59.453-2.936-71.147,78.945
		c-5.845,50.688-61.406,143.285-95.522,160.824c-15.601,7.799-37.036,11.699-46.782,8.779
		c-25.347-7.807-36.064-50.688-18.525-77.006c37.041-58.482,47.769-90.645,47.769-148.16c0-78.945-13.652-115.98-49.717-130.6
		c-23.389-9.746-32.163-9.746-52.627,3.891c-27.29,18.521-82.852,109.17-82.852,136.461c0,9.746,15.591,41.908,34.116,70.18
		c69.199,104.293,80.898,247.578,29.238,362.588c-29.238,65.309-61.401,89.678-118.916,89.678
		c-66.274,0-75.054,13.639-81.875,129.635c-4.878,87.719-8.77,108.184-32.168,147.172c-30.21,51.66-88.691,94.551-156.919,113.072
		c-48.735,13.643-73.105,39.961-73.105,76.996c0,41.91-22.417,98.453-52.637,133.535c-22.417,24.371-47.754,39.961-97.471,55.562
		l-68.228,21.445l-11.699,66.279c-14.619,76.992-49.707,142.299-91.616,172.523c-15.601,11.686-58.481,30.211-94.551,42.881
		c-75.054,25.348-90.645,43.863-90.645,112.09c0,58.482-30.22,116.963-88.701,171.553c-61.406,57.5-115.986,81.871-181.294,82.852
		c-43.862,0-53.608-3.906-66.274-23.398c-28.271-42.891-10.728-71.152,67.246-110.141
		c113.071-55.557,152.061-108.193,137.441-184.219c-12.671-68.232-117.944-142.305-156.934-110.143
		c-7.798,5.846-30.215,44.834-50.679,85.771c-38.989,80.898-42.891,112.09-27.3,259.277c6.826,61.406,4.873,91.617-7.793,139.381
		c-28.262,111.113-86.743,172.523-210.532,221.26c-92.598,36.055-97.471,42.881-97.471,135.479
		c0,93.578-20.474,147.188-68.232,181.299c-31.191,22.416-106.245,48.734-138.408,48.734c-26.318,0-56.528-35.092-56.528-67.256
		c0-31.195,13.638-45.814,72.119-74.076c57.515-28.268,68.232-56.539,55.562-149.137
		c-17.544-130.605-66.279-257.314-104.297-271.934c-40.928-15.6-158.872,78.945-185.19,149.127
		c-22.417,59.453-13.643,111.117,41.919,235.879c42.881,98.441,45.801,109.17,46.782,192.021c0,72.119-3.901,94.535-21.445,127.68
		c-42.891,80.898-140.361,137.428-266.089,155.953c-24.37,2.92-49.717,12.67-56.533,21.445
		c-7.803,10.717-11.699,51.654-11.699,123.789c0,97.471-2.92,113.061-25.347,158.877c-14.619,29.238-44.834,66.273-70.171,87.719
		c-45.811,37.037-56.543,38.99-162.778,29.244l-29.238-2.926l4.873,48.736c10.718,107.216,3.892,212.484-16.572,253.422
		c-25.337,48.735-45.815,67.251-110.142,100.396c-57.51,29.238-59.463,32.163-87.725,111.108
		c-23.394,62.383-77.002,123.789-136.455,154.009c-22.417,11.689-73.105,24.37-114.043,29.243
		c-42.891,4.873-79.927,13.638-87.725,22.417c-17.539,16.572-18.521,80.898-2.92,133.535c12.666,42.881,12.666,180.322,0,223.203
		c-21.445,75.054-71.152,121.836-177.397,163.745c-34.116,13.652-67.261,31.196-74.077,39.971
		c-6.821,8.765-11.694,43.862-11.694,83.818c0,86.753-35.098,168.623-96.499,223.213c-40.942,37.036-115.015,75.053-144.258,75.053
		c-7.793,0,6.826,14.621,32.163,32.164c100.396,68.227,154.985,196.891,154.985,362.594c0,114.031-17.544,163.744-77.979,222.227
		l-37.036,36.068l74.072,76.992c110.142,113.072,148.159,210.541,165.698,427.9c5.845,77.973-35.083,119.887-89.673,89.672
		c-24.365-12.664-29.238-26.316-50.684-153.027c-31.187-185.195-80.898-263.168-158.877-253.422
		c-92.598,12.666-107.217,60.434-55.562,175.445c80.908,180.32,188.125,275.84,365.518,323.602
		c128.662,35.09,262.197,225.156,286.562,409.375c7.798,58.488,6.826,70.182-6.821,79.934c-20.469,15.586-74.077,15.586-86.743,0
		c-5.854-6.828-27.3-58.488-46.797-114.043c-37.036-109.172-86.743-192.988-130.601-224.186
		c-34.116-24.369-41.914-24.369-61.406-1.947c-38.989,42.891,27.29,227.098,103.315,288.504
		c22.417,17.551,66.279,46.793,98.442,63.355c51.665,27.301,64.336,30.219,131.582,28.271
		c109.17-3.9,161.807,24.369,296.313,159.854c130.615,132.555,157.905,169.594,182.27,251.469
		c21.445,73.105,29.243,80.898,174.468,188.117c87.725,64.33,115.991,103.32,124.771,170.574c4.873,34.113,2.92,38.99-17.554,43.863
		c-46.782,12.672-61.406,4.873-139.38-69.203c-119.888-115.02-228.076-159.855-278.76-114.039
		c-38.989,35.082-12.671,126.715,58.481,203.707c74.072,79.93,140.351,82.852,309.951,10.727
		c99.424-41.91,110.142-43.863,195.913-43.863c104.297,0,183.252,17.545,268.042,60.436
		c67.261,34.115,160.825,102.344,190.068,140.352c27.3,35.092,27.3,85.771-0.972,105.268
		c-34.116,24.367-50.688,19.492-121.836-38.992c-88.696-74.074-126.714-97.467-196.895-120.855
		c-102.344-34.117-249.517-21.445-280.713,25.336c-34.111,52.637,15.591,118.918,107.217,144.258
		c89.678,25.348,275.84,38.984,367.466,26.32c44.834-5.846,103.315-10.723,130.605-10.723c38.018,0,65.308-8.77,122.817-38.014
		c93.569-48.736,160.825-63.354,266.094-57.506c71.152,3.898,93.564,9.746,155.952,39.961
		c38.989,19.492,92.598,53.609,117.935,77.004l47.764,40.932l-6.826,62.389c-2.92,35.082-0.967,81.875,4.873,105.262
		c25.352,99.426-42.881,125.742-318.726,125.742h-185.195l-57.5-29.242c-59.463-30.219-84.805-65.309-118.916-159.854
		l-11.699-33.135l-149.126,6.812c-170.576,7.807-326.528-4.875-421.074-33.131c-82.852-26.322-153.032-87.725-177.397-156.934
		c-9.751-27.291-24.37-52.631-33.135-57.506c-7.798-3.895-48.735-9.746-89.678-12.664c-157.9-11.699-244.643-82.852-305.078-253.424
		c-21.445-58.482-31.191-75.053-52.637-82.846c-13.643-4.875-46.787-17.559-73.105-26.32
		c-118.916-42.895-241.724-161.805-315.796-307.035c-46.792-90.645-52.637-147.184-24.37-227.105l17.544-47.762l-29.238-20.465
		c-137.441-99.418-192.993-204.688-205.669-393.785l-6.816-93.562l-44.844-39.973c-205.654-184.213-293.379-330.418-293.379-490.273
		c0-77.977,18.516-115.014,72.119-148.158c19.497-12.666,35.098-26.318,35.098-32.162c0-4.875-25.347-47.766-56.533-94.547
		c-67.256-100.395-113.066-228.086-130.61-364.541c-11.699-91.615-11.699-92.598,14.619-144.258l27.29-52.627l-26.318-73.101
		c-20.464-55.562-27.29-97.471-31.182-172.524c-3.906-91.626-1.953-103.325,21.436-155.952
		c33.145-71.152,89.673-129.634,173.501-179.351c35.088-21.445,67.251-44.834,70.171-52.627c1.953-6.826,0-41.919-5.84-76.035
		c-33.145-197.866,103.311-406.445,297.28-456.157c25.342-5.85,49.707-16.572,54.58-22.417c5.854-6.826,13.652-46.787,18.525-89.678
		c10.718-90.645,30.21-134.507,111.118-241.724c32.163-42.891,62.378-88.691,68.228-102.344
		c4.878-13.647,19.497-84.8,31.187-156.923c32.173-186.172,65.308-243.672,169.6-288.516
		c107.217-46.787,103.315-42.881,111.123-105.27c8.765-67.256,48.73-143.281,95.518-182.27
		c30.21-26.318,106.235-66.279,176.416-94.547c14.619-5.844,38.989-35.088,63.354-76.025
		c44.844-76.996,106.25-129.633,204.688-174.467c38.018-17.549,72.134-36.064,76.025-41.92c3.906-5.844,14.624-43.861,25.352-83.822
		c23.384-91.621,39.956-123.789,94.546-182.271c60.425-65.307,124.761-103.314,206.631-123.789
		c38.018-9.746,73.101-22.416,77.974-27.289s15.601-33.135,24.37-63.355c35.093-124.76,117.944-200.785,247.578-228.07
		c101.372-20.479,116.963-30.225,163.745-96.504c29.243-42.891,54.59-66.275,96.499-88.691c48.735-26.318,61.406-38.99,96.494-100.4
		c69.209-121.842,147.183-183.242,261.226-207.613c74.072-15.59,82.852-22.416,102.344-78.945
		c18.516-52.641,80.898-130.615,122.808-153.031c29.243-15.592,32.163-21.445,56.533-120.865
		c36.064-149.131,107.217-244.648,226.133-304.102c37.036-18.525,74.072-34.115,81.88-34.115c6.812,0,14.619-5.855,17.539-11.699
		c1.953-6.822,10.718-37.037,18.516-66.275c16.572-56.543,104.297-185.195,127.69-185.195c6.826,0,21.445-28.271,33.135-66.289
		c24.37-81.865,51.665-122.807,108.198-164.717c107.217-79.926,108.188-80.898,115.981-148.158
		c6.826-55.557,11.699-66.275,39.971-90.645c18.516-14.619,53.608-34.111,77.979-43.863c59.453-21.445,77.974-38.984,77.974-75.053
		c0-16.572-13.647-104.292-29.243-195.908c-38.013-213.467-117.944-785.615-155.952-1114.092
		c-15.601-141.338-38.013-292.412-49.712-336.279c-10.718-43.857-18.516-95.518-15.591-114.023
		c4.873-40.947-16.572-423.027-37.041-638.438c-9.746-112.09-14.619-296.309-14.619-653.047l-0.981-497.1l39.971-248.545
		c77.974-491.26,89.663-521.475,477.603-1315.85c119.888-243.682,236.851-478.584,261.221-521.465
		c134.507-237.832,456.157-662.803,642.324-847.998c52.637-52.637,169.6-156.934,261.226-232.959
		c90.645-76.025,248.55-206.631,350.894-291.435c313.848-262.188,543.882-427.891,813.877-586.768
		c206.631-121.836,202.734-117.939,165.698-170.566c-37.046-51.67-58.481-116.963-58.481-178.379
		c-0.981-72.129-15.601-116.963-55.562-168.623c-69.209-89.678-98.447-236.855-66.274-338.223
		c18.511-60.43,18.511-62.373-19.497-187.139c-17.549-59.463-27.3-112.09-28.267-162.773c-0.972-71.152,0.967-78.955,46.782-166.68
		c26.318-50.684,46.782-103.32,46.782-115.986c0-11.699-7.793-59.463-16.562-104.297c-20.474-99.424-14.619-160.82,21.436-231.973
		c21.445-43.867,36.069-58.486,85.781-86.758c33.135-18.516,71.152-33.135,84.795-33.135c13.647,0,52.637,18.516,85.781,40.938
		c57.5,38.018,62.373,39.961,91.616,27.295c95.518-38.984,131.582-47.764,200.791-48.73c76.997,0,138.403,21.436,204.688,69.199
		l29.243,22.412l86.743-21.445c148.154-37.041,232.959-25.342,301.187,39.971c39.961,38.008,48.735,52.627,76.025,133.535
		l21.445,63.359l96.489-3.906c82.852-2.92,104.297,0,146.206,18.525c65.308,28.262,114.043,80.898,128.662,138.398
		c5.854,25.342,10.728,82.852,10.728,127.686c0,54.58,3.892,85.781,12.671,92.598c5.845,4.873,64.326,11.699,128.662,14.629
		c204.688,8.76,324.575,56.523,357.705,143.281c8.779,24.365,16.572,71.152,16.572,104.287
		c0.981,85.781,7.798,90.654,142.313,104.287c53.609,5.859,108.189,0.986,472.73-41.904
		c453.232-52.637,670.596-64.326,1242.744-64.326c414.248,0.967,552.656,3.887,696.914,17.539
		c343.086,32.168,694.961,91.621,1019.531,172.529c309.961,76.025,395.731,114.033,1017.597,448.359
		c908.418,488.32,921.094,495.146,1111.162,677.422c50.674,49.697,158.877,144.248,238.799,211.494
		c80.898,67.266,161.797,137.441,181.289,154.99c53.613,48.73,194.941,211.513,231.982,265.117
		c17.539,25.342,48.73,56.533,69.209,70.186c48.73,31.182,138.398,56.523,204.688,57.5c47.754,0.977,58.477-2.93,99.414-35.088
		c25.352-19.492,62.383-40.938,82.852-47.764c44.844-15.596,140.352-15.596,206.641,0.977
		c46.776,10.723,50.683,10.723,78.944-12.676c15.598-13.643,54.59-32.168,84.797-40.928
		c119.891-33.145,150.105-53.613,201.766-139.395c47.766-79.912,78.957-94.541,181.301-92.597
		c45.809,0.986,93.562,2.939,106.238,4.873c20.469,2.939,25.352-3.886,47.766-73.095c27.285-85.771,59.453-120.859,164.715-176.426
		l55.566-30.205l15.598-78.955c18.516-97.471,56.531-163.75,117.938-203.711l44.824-29.238l4.883-78.955
		c4.863-88.701,24.367-131.592,98.449-214.443c49.707-55.557,65.301-81.865,65.301-111.104c0-35.098,38.996-138.408,70.176-182.275
		c37.043-54.59,93.574-95.518,160.82-116.963c72.141-22.412,100.41-50.684,100.41-97.471c0-49.717-28.27-93.574-79.93-122.822
		c-124.758-72.119-172.531-30.205-173.496,150.117c0,105.264-10.734,125.732-65.305,125.732c-45.82,0-65.312-29.238-69.219-106.24
		c-4.863-75.059,8.781-148.164,39.973-225.156c29.246-71.162,187.148-368.447,212.488-400.605
		c20.461-26.318,20.461-26.318,2.922-115.986c-14.621-77.002-15.598-100.4-5.852-156.934c10.723-63.35,10.723-67.246-18.516-137.432
		c-22.422-50.684-32.168-92.598-35.086-146.201c-4.875-70.186-2.922-77.979,22.41-121.836
		c44.836-74.082,48.742-94.551,45.82-228.086l-2.93-124.756l-43.855-89.678c-54.59-112.09-59.465-177.402-18.527-266.094
		c28.273-61.406,27.285-77.002-5.84-166.67c-51.668-140.361,9.746-229.053,157.891-229.053c126.711,0,180.324,79.912,216.387,327.49
		c8.77,58.486,22.414,130.615,30.215,159.863c21.445,79.912,18.516,109.15-19.492,181.289
		c-18.516,36.064-34.109,70.176-34.109,77.002c0,6.816,11.688,38.008,26.309,69.199c23.398,51.66,26.316,68.232,24.363,154.004
		c-0.965,92.598,0,99.424,34.121,168.623c54.59,112.09,49.707,169.6-21.434,262.197c-35.098,44.834-43.867,63.35-39.973,81.875
		c25.352,112.09,28.273,178.369,16.574,307.031c-7.805,74.072-14.621,171.543-15.598,218.33
		c-1.953,69.209-7.801,94.551-30.215,142.314c-29.246,61.406-34.121,116.963-18.516,210.527
		c5.84,37.041,2.922,53.613-19.492,102.344c-22.43,48.74-25.352,64.326-18.523,101.377c29.238,160.82-5.852,256.348-135.488,366.484
		c-34.113,28.271-36.055,33.144-36.055,88.691c0,73.105-32.18,142.314-97.473,205.664c-63.359,63.359-75.059,89.678-79.93,194.941
		c-8.781,148.164-66.281,240.762-190.07,303.135c-26.316,13.652-41.902,27.285-41.902,38.984c0,9.746-15.605,48.74-34.113,85.771
		c-39.98,78.955-108.203,149.141-146.211,149.141c-37.051,0-95.527,33.135-113.066,65.293c-8.77,14.619-23.398,52.637-32.168,83.838
		c-27.285,93.564-103.32,153.027-195.918,153.027c-44.832,0-73.094-24.365-73.094-62.383c0-38.994,10.711-48.74,67.246-64.326
		c23.398-5.859,51.66-21.445,64.336-35.098c40.926-43.867,58.484-173.496,29.246-215.41c-21.445-30.215-93.582-55.557-142.312-48.73
		c-40.949,5.84-85.773,39.961-127.688,97.471l-19.492,27.285l30.215,30.215c40.938,39.971,51.652,83.828,39.961,165.703
		c-9.746,70.176-35.098,119.893-83.828,165.693c-38.984,36.064-72.117,46.797-143.281,46.797c-64.324,0-76.023,4.873-135.477,60.42
		c-66.28,63.359-173.497,65.312-189.093,3.906c-7.803-33.145,0-42.891,53.604-66.279c61.406-26.318,84.806-50.684,108.192-112.09
		c31.191-84.805,28.262-97.471-34.11-125.742c-72.129-33.135-172.52-40.938-218.33-16.572
		c-52.646,27.305-56.533,40.938-31.201,115.029c17.549,56.523,20.479,77.969,14.619,146.201
		c-4.863,63.359-2.92,86.738,9.746,113.057c8.779,18.525,112.1,153.037,230.039,300.215
		c209.562,261.211,372.335,487.344,399.628,556.553c7.793,18.516,47.754,111.113,89.668,203.711
		c41.914,93.574,76.035,179.346,76.035,190.068c0,11.699-6.824,29.238-14.629,38.984c-7.801,10.732-14.609,27.295-14.609,37.041
		c0,8.779,32.16,64.336,72.121,121.836c94.539,138.408,185.184,300.215,289.48,514.648
		c104.297,215.41,168.625,379.16,271.953,682.295c324.57,960.078,481.496,1629.697,535.098,2273.975
		c13.652,166.67,21.445,221.26,33.145,232.949c9.746,10.732,44.836,17.559,106.242,23.398
		c120.867,10.723,216.387,40.938,252.449,79.932c41.914,45.811,51.66,84.8,44.836,189.082
		c-5.852,78.96-10.715,100.405-45.801,170.576c-21.445,43.862-38.996,85.781-38.996,92.598c0,7.803,8.77,26.318,20.469,40.938
		c13.652,18.525,23.398,51.655,28.273,95.518c10.711,100.405,32.156,129.644,96.492,129.644
		c52.637,0,108.195-105.273,112.09-211.514c0.977-63.354-22.422-90.645-100.398-116.963c-64.328-21.445-77.004-38.018-60.43-78.955
		c11.699-28.262,16.57-30.215,68.23-33.135c95.52-4.873,183.242,44.834,206.641,117.935c24.367,73.105,8.77,208.589-37.039,328.477
		c-3.906,9.746,3.895,13.652,30.203,13.652c97.48,0,215.422,80.898,248.555,171.543c51.66,136.455,1.953,363.559-88.691,405.469
		c-20.477,9.75-42.891,27.299-50.684,38.988c-23.398,36.07-44.844,178.379-44.844,295.342c0,95.523,2.93,113.062,19.504,134.508
		c28.262,35.088,81.863,49.707,117.93,31.195c22.422-12.68,32.168-30.225,58.484-110.15
		c47.766-149.127,42.891-230.025-21.445-312.877c-10.723-12.666-18.516-38.018-18.516-55.561c0-30.211,2.922-33.131,28.262-33.131
		c38.984,0,89.68,18.512,116.965,42.881c38.992,35.094,49.715,75.055,49.715,189.098c0,125.727-23.398,229.053-70.176,313.852
		l-31.191,56.533l38.008,55.562c34.121,48.73,38.996,63.354,41.914,121.836c6.828,122.807-48.73,234.896-147.188,296.303
		c-39.961,24.365-59.453,29.244-135.477,34.117l-89.68,5.85l-12.664,41.914c-18.527,64.326-35.09,228.076-30.227,308.002
		c3.906,92.594,20.48,113.072,86.758,113.072c38.02,0,53.613-5.855,80.898-29.244c53.613-47.764,93.574-165.697,93.574-279.74
		c0-64.336,1.945-71.152,26.309-90.645c31.191-24.371,67.266-19.498,94.551,12.666c15.605,18.516,17.539,32.168,12.676,105.268
		c-8.77,141.334-45.809,249.521-113.066,334.322c-34.121,42.891-34.121,40.938-48.73,176.426
		c-16.582,141.332-69.207,244.648-158.875,308.975c-70.188,49.717-309.953-0.973-385.012-81.871
		c-31.191-33.145-62.383-109.17-68.23-168.623c-7.793-77.973,25.34-142.309,122.812-234.906
		c110.137-105.27,119.883-131.588,137.43-362.594c9.758-133.525,25.344-188.115,67.258-241.723
		c16.57-21.445,18.523-34.117,13.641-114.043c-6.816-115.982,8.77-195.908,45.82-232.949c32.16-31.191,58.477-35.094,80.898-9.746
		c20.469,21.445,20.469,56.533,1.953,133.535c-14.629,61.406-11.699,113.061,10.715,148.148
		c42.891,68.229,151.082,4.873,180.32-106.234c10.723-40.943,9.746-55.562-6.824-120.869l-19.492-75.055l-54.582-1.943
		c-85.77-3.9-154.98-28.266-184.219-65.307c-54.59-69.209-57.508-82.848-57.508-248.545c0-130.615,2.918-164.732,21.434-226.133
		l21.445-72.135l-22.41-15.59c-57.512-39.961-108.195-93.57-128.664-135.488c-18.516-38.99-22.422-66.279-26.316-177.389
		c-3.898-144.262-12.668-165.697-60.422-165.697c-13.652,0-45.82-12.681-69.219-28.271
		c-71.152-44.834-103.309-112.09-115.008-238.804l-5.852-69.199l-58.477-0.981c-33.145-0.972-79.922-9.746-110.145-21.445
		c-37.043-14.619-52.629-16.562-58.488-8.765c-3.887,6.826-11.688,73.101-17.539,148.154
		c-11.699,141.333-23.387,232.948-47.754,375.263c-7.812,45.801-20.477,126.709-29.238,180.318
		c-8.777,53.607-24.375,139.379-34.121,190.068c-9.746,50.678-30.215,153.998-43.855,229.053
		c-85.793,463.955-282.668,1012.715-467.863,1306.104c-69.207,110.141-188.125,269.014-316.777,423.018
		c-110.145,132.562-437.645,568.246-470.789,626.729c-30.207,52.637-267.062,281.693-382.081,369.418
		c-53.604,40.938-181.289,131.582-284.609,201.764c-102.344,70.18-267.07,188.114-365.518,262.191
		c-229.053,172.524-403.525,280.718-694.961,426.924c-644.277,325.547-1368.486,574.097-2007.88,691.06
		c-471.758,85.771-815.83,112.09-1566.348,119.888c-980.557,9.746-1232.031-16.562-1976.699-211.504
		c-142.314-37.046-330.43-80.908-419.121-97.471c-88.706-16.572-220.288-40.938-292.412-54.59
		c-72.129-13.638-179.351-37.036-238.804-51.655c-149.136-38.989-146.206-38.989-164.727-25.337
		c-11.699,9.746-19.492,42.881-31.191,132.554c-15.591,134.507-40.942,213.462-107.217,337.246
		c-23.389,44.839-42.881,89.673-42.881,99.419c0,13.647,20.464,31.191,71.147,60.435c95.522,55.556,149.131,108.188,173.496,173.497
		c25.342,68.227,39.961,265.117,36.064,498.074c-1.948,193.961,0,202.734,72.124,269.016
		c81.88,76.023,314.839,196.895,636.489,332.383c32.163,13.637,108.188,47.754,168.623,76.992
		c60.43,29.242,114.043,52.637,119.883,52.637c5.844,0,26.322,13.641,44.834,29.242c34.115,30.211,274.867,155.953,297.285,155.953
		c6.826,0,30.225,8.77,51.67,18.516c21.436,10.723,98.438,38.984,170.566,62.383c72.129,24.363,182.266,61.406,243.682,82.852
		c61.406,22.41,125.732,41.908,141.328,43.855c16.562,1.953,44.834,10.723,63.359,19.498
		c49.707,21.445,102.344,29.244,123.779,17.545c21.445-10.723,71.162-100.391,90.654-160.832
		c6.816-21.445,20.459-51.654,30.215-68.227c23.389-39.957,212.48-510.738,277.783-691.059
		c57.51-156.934,121.846-371.367,144.258-481.504c18.525-87.727,9.746-116.965-43.857-150.109
		c-21.455-12.67-66.279-40.941-100.4-63.359c-38.984-25.336-126.709-62.371-235.879-101.361
		c-96.484-33.145-186.162-67.256-200.781-74.082c-48.74-25.337-42.891-85.771,9.746-97.471c14.619-2.92,31.191-6.826,37.031-8.765
		c5.85-1.953,35.088,7.793,63.359,21.436c29.238,12.676,122.812,49.717,208.594,81.875c85.771,32.169,173.496,70.185,194.941,85.776
		c21.436,14.619,54.58,35.092,73.096,44.838c43.867,21.438,84.795,60.426,105.273,97.473
		c11.699,21.434,14.619,52.625,13.633,119.887c-1.934,77.973-9.746,116.963-62.373,297.285
		c-32.158,113.062-63.35,209.561-68.232,212.48c-15.596,10.727-262.197,648.18-265.117,686.195
		c-0.967,5.846-25.342,66.281-54.58,134.508c-83.828,195.914-136.455,250.504-241.729,250.504
		c-41.914,0-133.535-27.297-434.717-127.695c-366.484-122.809-447.393-155.953-522.438-214.434
		c-51.67-40.93-322.631-182.262-355.766-186.164l-29.243-2.924l-0.981,77.975c-5.845,328.477-33.135,642.324-62.373,731.029
		c-43.862,130.6-125.742,222.232-227.114,253.424c-77.974,23.387-377.202,29.238-523.408,10.717
		c-252.451-32.162-882.104-231.006-1000.049-315.795c-44.834-32.18-216.387-101.379-311.904-124.777
		c-37.036-9.746-126.714-42.879-198.833-74.07c-258.296-113.059-301.191-129.629-313.857-116.965
		c-6.826,6.828-12.671,96.5-17.544,267.07c-6.826,235.875-9.746,262.193-32.173,332.375
		c-13.638,41.908-41.909,105.262-64.326,142.305c-35.083,59.461-44.834,69.207-85.771,82.846
		c-63.354,21.445-80.898,19.498-202.734-19.492c-114.043-36.061-241.738-52.631-268.047-33.135
		c-75.054,53.609,415.22,116.963,577.017,74.072c204.688-54.576,294.365-135.475,330.43-303.131
		c10.718-52.637,13.647-197.859,6.826-331.395c-2.925-44.844-0.981-48.736,23.384-57.512c32.173-11.699,61.416,9.746,81.88,59.465
		c21.445,49.707,17.544,255.359-5.845,347.957c-36.064,142.316-116.963,261.23-222.241,328.477
		c-187.134,118.918-583.838,115.012-873.325-8.77c-38.018-16.57-74.077-27.293-80.898-24.363
		c-6.826,2.918-37.041,54.578-67.261,114.031c-36.064,72.129-74.072,130.617-112.09,173.508
		c-50.688,56.531-64.326,66.277-107.217,75.043c-84.805,18.52-126.714,49.711-174.468,132.562
		c-44.844,76.027-78.955,111.113-138.408,140.352c-56.533,28.273-66.279,30.227-173.496,30.227
		c-81.88,0-135.488-5.859-190.068-19.498c-105.273-27.291-142.31-25.346-171.553,5.846c-33.135,36.062-58.481,46.785-178.369,77.006
		c-79.927,20.463-119.888,25.338-159.844,21.445c-60.435-6.826-143.286-43.861-176.426-78.959l-23.389-24.367l-20.474,40.938
		c-15.591,31.191-29.243,43.867-59.453,54.582C3890.725,19836.008,3675.319,19840.885,3622.683,19823.34z M3949.206,19696.633
		c33.145,0,60.435-2.926,60.435-5.852c-0.981-2.918-6.826-31.191-14.619-63.348c-7.798-32.168-14.624-77.012-14.624-99.426
		c0-38.988-0.977-40.938-45.811-58.484c-72.134-27.285-234.897-24.367-303.13,5.848c-28.271,12.676-60.435,34.113-70.181,47.766
		c-38.989,49.707-15.601,119.883,51.66,154.98c55.556,28.262,78.945,32.162,177.397,26.309
		C3843.942,19700.533,3915.095,19697.609,3949.206,19696.633z M4433.635,19653.75l107.217-36.068l-2.93-53.607
		c-1.943-29.238-8.765-62.383-16.562-73.105c-17.554-28.268-73.101-43.859-172.524-50.684
		c-101.372-6.828-161.797,6.824-202.734,45.809c-24.37,23.391-29.243,35.09-29.243,75.059c0,47.754,18.516,87.727,54.58,115.012
		C4207.502,19703.457,4314.719,19694.68,4433.635,19653.75z M3137.282,19612.809c79.927-11.695,121.836-26.318,121.836-43.863
		c0-20.473-125.737-110.137-185.19-132.562c-67.261-25.336-157.905-21.436-229.058,9.746
		c-55.562,24.371-63.354,33.145-63.354,75.055c0,68.23,63.354,100.391,199.814,100.391
		C3030.066,19621.574,3100.246,19617.682,3137.282,19612.809z M5020.397,19602.082c14.624-4.875,39.971-21.438,54.59-36.055
		c48.735-45.812,59.453-77.008,60.435-173.508c0-100.391-9.746-120.859-57.51-120.859c-48.735,0-177.397,37.043-243.677,70.188
		c-101.372,50.672-119.888,68.223-141.333,141.328c-10.718,35.086-17.544,68.23-14.619,73.105
		c10.718,16.562,65.308,38.008,118.916,45.801C4879.069,19613.781,4989.216,19614.758,5020.397,19602.082z M5392.736,19305.777
		c40.942-20.473,92.598-84.801,137.441-171.553c54.58-105.268,68.228-147.174,56.528-170.572
		c-14.619-27.293-48.735-52.625-71.147-52.625c-28.271,0-199.814,177.391-199.814,206.635c0,3.893,13.638,22.416,30.21,41.908
		c27.29,31.191,30.21,38.99,24.365,76.027c-2.92,22.416-8.774,50.684-11.694,63.359
		C5351.799,19324.289,5355.7,19325.273,5392.736,19305.777z M6326.501,18893.477c11.699-18.52,31.191-57.508,43.862-87.719
		c20.474-51.664,22.427-73.102,25.347-310.934c1.953-176.414,0-256.348-6.826-256.348c-5.84,0-27.29,34.117-48.735,76.027
		c-70.176,138.406-96.499,163.75-211.509,206.641c-30.215,10.711-31.191,12.664-41.909,101.361
		c-6.826,50.689-18.525,115.025-25.342,143.287c-20.474,76.02-18.521,101.367,8.77,118.91
		c37.036,24.371,122.817,44.834,181.299,42.895C6300.192,18925.645,6306.037,18922.721,6326.501,18893.477z M1483.21,18785.285
		c19.492-9.746,55.562-24.371,79.927-31.191c24.365-6.816,47.754-15.598,52.627-19.498
		c13.652-11.686-89.663-153.021-173.496-235.869c-91.616-92.598-159.844-128.668-227.1-120.863
		c-50.688,5.84-91.626,32.156-104.297,67.254c-10.718,31.184,32.163,128.652,85.771,192.988
		c68.228,80.898,186.172,164.719,232.959,165.699C1439.348,18803.805,1462.747,18796.008,1483.21,18785.285z M5932.727,18779.439
		c17.544-16.572,45.815-164.732,45.815-234.908c0-59.453-15.601-77-61.416-69.203c-101.362,16.572-221.25,93.57-221.25,143.285
		c0,26.32,58.481,83.82,140.352,137.428C5899.582,18797.949,5912.253,18800.885,5932.727,18779.439z M8790.559,18721.926
		c63.354-16.574,101.362-37.031,132.554-71.152c72.134-77.004,89.673-171.543,106.245-568.248
		c4.873-131.588,12.671-266.088,15.596-299.232l6.821-59.453l-81.88-38.99c-44.829-21.445-83.818-38.018-85.771-36.068
		c-1.948,1.953-11.694,66.277-21.445,143.285c-51.655,399.629-67.246,475.648-121.836,589.691
		c-62.373,130.605-136.46,165.703-330.42,155.957c-141.328-7.807-258.296-26.316-405.479-64.336
		c-346.992-90.645-890.874-320.672-1264.194-536.088c-75.044-42.881-274.858-162.779-442.51-265.123
		c-167.651-103.309-318.73-192.988-334.321-199.812c-16.572-6.816-85.781-58.482-154.009-115.012
		c-68.228-56.531-133.525-108.188-145.225-114.043c-10.728-5.844-56.533-41.908-99.424-78.945
		c-43.862-38.016-129.634-105.268-191.035-149.129c-161.807-115.992-306.06-243.678-481.509-424.977
		c-163.75-168.623-201.763-217.358-227.104-283.633c-19.492-51.66-21.445-193.97-3.901-275.84
		c15.601-69.209,104.297-226.133,144.253-251.479c45.815-29.243,129.644-109.16,129.644-123.779
		c0-19.497-61.411-38.989-125.742-38.989c-44.829,0-88.691,31.182-108.184,77.974c-6.826,15.591-24.37,36.06-38.989,45.806
		c-27.3,18.521-115.996,117.944-153.032,174.478c-31.191,45.811-68.228,162.773-76.025,237.827
		c-12.676,124.761,42.881,289.482,139.38,407.426c53.608,67.246,624.785,664.746,695.933,728.105
		c27.3,24.367,70.181,56.529,94.551,71.152c24.365,13.648,55.557,36.066,69.209,48.73c13.638,13.652,57.5,45.816,97.471,71.152
		c39.956,26.32,95.518,64.336,121.836,84.805c75.044,59.453,310.928,217.355,418.145,279.738
		c231.978,135.477,938.633,444.461,1117.012,487.352c35.088,8.77,70.171,19.492,79.917,24.367
		c8.779,4.871,54.59,23.387,102.349,41.914c46.792,18.52,134.512,55.555,192.998,82.852
		c240.742,109.164,591.636,206.635,862.612,240.75C8562.473,18737.531,8730.124,18738.496,8790.559,18721.926z M5533.098,18641.027
		c23.389-54.582,34.116-103.312,45.815-216.387c12.666-115.012,44.829-228.072,93.564-324.57
		c40.942-81.881,77.979-123.789,143.286-164.727c83.818-52.633,83.818-54.582,11.699-103.32
		c-34.116-23.395-66.289-41.906-71.162-41.906s-11.689,12.668-14.619,28.258c-7.798,37.047-32.163,49.717-116.968,60.434
		c-122.808,15.602-152.051,47.766-178.369,193.971c-21.445,114.037-24.365,406.451-5.845,487.35
		c13.643,61.406,43.862,116.967,63.359,116.967C5511.652,18677.096,5524.323,18660.523,5533.098,18641.027z M5798.22,18394.43
		c38.008-15.602,76.997-29.242,88.696-29.242c23.394,0,47.764-24.367,57.51-58.477c23.389-78.961,82.852-160.832,148.145-203.723
		c50.688-34.109,85.781-38.008,112.095-13.637c30.22,27.289,20.474,49.703-39.961,96.488c-32.163,25.348-65.308,60.43-75.054,79.928
		c-15.591,32.162-14.619,36.068,2.92,78.951c21.445,52.637,43.862,60.43,77.979,28.266
		c44.844-40.938,110.146-191.039,110.146-252.451c0-13.639-7.803-32.162-16.567-39.955
		c-25.352-21.445-283.647-154.004-301.187-154.004c-7.798,0-18.516,11.699-24.37,26.316c-4.873,14.621-41.909,60.426-81.87,101.367
		c-77.974,81.875-114.043,142.311-136.455,230.031c-18.525,70.176-19.497,139.383-1.953,139.383
		C5725.119,18423.672,5761.174,18411.002,5798.22,18394.43z M8572.219,18398.32c58.481-30.209,110.142-194.941,144.258-458.105
		c37.036-291.434,38.013-372.332,5.85-345.039c-14.619,12.668-23.394,48.73-53.608,229.055
		c-36.064,211.512-88.701,345.039-158.882,398.646c-58.481,44.838-108.188,56.537-240.742,57.514
		c-140.361,0-232.959-13.652-351.875-51.66c-134.507-43.861-649.15-308.984-722.251-372.338
		c-14.619-12.67-74.082-50.689-131.587-85.771c-57.51-34.117-151.079-94.547-207.607-134.508
		c-154.014-108.197-263.169-173.504-419.121-253.422c-77.007-38.988-182.275-101.371-233.931-137.438
		c-50.688-37.039-134.517-93.568-185.195-125.73c-50.684-33.145-128.662-88.707-171.553-123.789
		c-322.622-260.25-655.972-486.383-900.62-609.191l-79.927-39.97l17.544,29.243c27.29,45.811,175.444,206.637,267.07,289.488
		c94.541,85.77,227.104,192.02,487.354,391.83c99.409,76.025,206.631,160.83,238.804,188.119
		c32.163,26.32,95.518,74.082,141.328,104.293c45.806,30.211,88.696,62.387,95.522,72.133
		c16.572,23.391,755.391,464.922,905.493,540.957c64.336,33.137,143.281,67.252,175.444,76.027
		c31.191,8.77,119.897,43.861,197.871,77.977c371.357,163.75,616.987,242.695,872.358,281.68
		C8389.948,18417.818,8535.183,18417.818,8572.219,18398.32z M8439.665,18109.816c49.707-53.609,108.188-263.17,142.3-510.748
		l12.671-89.662l-34.116-36.07c-18.511-19.492-56.528-45.816-83.818-58.48c-79.927-36.066-116.963-69.211-149.126-135.488
		c-36.069-74.074-48.735-193.961-48.735-478.574c0-217.369-6.826-257.324-52.642-302.16
		c-43.857-43.861-148.154-102.344-182.271-102.344c-33.135,0-100.391,32.164-203.706,97.473
		c-59.463,38.008-86.753,48.734-143.281,57.5c-162.778,25.352-393.784,2.924-483.462-45.812
		c-113.062-61.406-155.952-185.194-152.046-431.791c1.948-76.997-1.953-128.662-8.779-141.333
		c-7.793-14.619-34.111-28.262-81.87-42.881c-38.984-11.699-156.929-65.308-262.197-118.916l-192.017-97.471l-166.67-1.948
		c-129.634-0.972-169.604,1.948-175.449,11.694c-16.572,27.29-33.145,273.892-28.267,426.919
		c4.873,144.253,7.803,160.825,37.046,239.775c74.072,201.764,276.807,444.467,487.349,583.848
		c122.808,81.881,329.448,167.65,428.872,179.35c18.511,1.953,51.655,8.77,73.101,14.621c21.436,5.844,117.935,12.67,215.405,15.594
		l176.416,4.875l58.481-29.244c107.222-54.58,149.141-135.488,157.905-303.131c8.774-162.773,44.844-207.617,103.325-130.613
		c26.309,35.086,27.29,37.039,20.464,132.559c-8.774,126.707-34.116,204.695-96.499,297.293
		c-44.834,67.246-58.481,79.918-114.033,108.189c-87.725,43.861-155.952,54.58-303.135,46.783
		c-207.612-10.719-464.937-59.453-545.835-103.316c-19.497-10.727-42.881-19.492-51.66-19.492c-8.774,0-60.43-26.318-115.01-59.463
		c-313.857-185.195-511.719-414.248-624.79-720.298c-31.187-84.805-34.116-102.344-36.06-209.565
		c-1.948-159.854,14.624-360.64,34.116-417.178c8.765-25.337,13.643-52.627,10.718-60.425
		c-4.873-12.681-68.228-14.619-468.828-14.619h-463.965l-46.782,23.384c-32.163,16.572-50.688,34.116-59.453,54.59
		c-6.826,16.562-31.191,42.881-53.608,58.481c-98.452,68.232-165.698,178.369-190.068,312.876
		c-5.854,33.145-8.774,76.025-4.873,93.569l5.845,32.173l30.21-15.601c43.862-22.417,90.654-12.671,205.669,42.891
		c125.732,61.406,612.114,390.849,809.004,548.755c81.87,64.326,167.651,128.662,192.017,143.285
		c24.37,13.639,58.481,37.037,76.025,52.629c17.544,14.629,36.069,27.299,40.942,27.299s38.008,26.318,73.101,57.5
		c38.989,34.115,126.714,92.598,216.377,143.281c83.828,46.787,269.995,157.904,413.276,246.596
		c143.286,89.68,283.638,175.449,310.938,191.051c27.285,16.572,87.72,53.609,134.507,83.824
		c122.808,78.953,216.382,130.613,436.665,240.75c269.99,135.488,315.806,147.18,542.91,145.234l145.225-1.953L8439.665,18109.816z
		 M644.963,16919.699c33.145-35.09,50.688-89.664,50.688-156.926c0-82.852-25.347-156.922-69.209-202.734
		c-39.961-41.914-66.279-46.785-113.062-17.543c-29.243,17.543-32.163,23.389-32.163,67.25
		c0,100.391,87.725,332.379,124.761,332.379C615.725,16942.125,633.269,16932.379,644.963,16919.699z M7693.034,16434.297
		c29.243-5.844,62.388-20.463,74.087-32.162c11.689-12.67,36.055-28.271,53.608-35.083
		c92.593-38.018,209.561-157.905,258.296-266.104c39.956-85.771,83.818-241.724,89.663-315.801
		c10.728-128.662-7.793-145.234-289.478-270.962c-93.579-42.891-188.125-88.706-209.561-103.325
		c-21.445-13.643-52.637-32.163-69.209-40.938c-29.243-14.624-30.215-14.624-54.58,16.572
		c-14.624,17.539-49.717,43.857-78.96,58.481c-212.48,103.325-323.594,417.168-278.76,790.488
		c15.591,130.605,28.271,151.078,111.118,178.369C7424.021,16453.789,7566.325,16461.588,7693.034,16434.297z M585.51,16390.436
		c18.516-4.873,19.497-8.765,10.723-34.116c-15.596-45.811-2.925-73.101,55.557-112.09c32.163-20.464,64.326-52.627,77.979-76.992
		c47.754-80.908,23.384-229.058-37.036-229.058c-38.018,0-140.361,57.505-172.524,95.518
		c-36.069,43.862-48.735,85.776-48.735,159.849c0,79.927,18.511,154.009,44.829,180.317
		C539.7,16397.262,550.417,16400.182,585.51,16390.436z M4311.799,16111.676c29.238-185.195,114.033-347.974,216.377-418.149
		c72.129-49.707,140.361-114.043,129.644-123.789c-17.554-16.562-210.542-79.922-242.705-79.922
		c-40.942,0-44.834,4.873-86.743,108.188c-64.336,154.985-83.833,274.868-66.289,403.53
		c10.728,76.997,31.191,180.322,36.064,180.322C4299.128,16181.856,4304.973,16149.684,4311.799,16111.676z M12187.395,16021.031
		c508.789-35.098,791.455-83.833,1281.737-219.312c817.764-225.161,1417.207-489.302,2003.008-882.104
		c307.031-206.635,861.631-616.992,970.802-718.354c38.992-37.041,140.359-161.807,250.496-309.957
		c181.301-243.676,376.23-492.227,522.441-667.67c192.988-231.988,354.797-548.766,477.609-933.775
		c59.461-187.133,128.66-440.557,142.312-523.408c6.816-39.965,34.113-195.918,61.398-346.016
		c55.566-310.938,95.516-582.88,104.297-711.532c7.801-124.771-10.723-746.626-29.238-960.083
		c-29.25-352.842-68.234-565.332-195.93-1072.178c-170.566-682.285-319.695-1149.17-500.984-1575.117
		c-139.387-326.533-231.008-498.076-449.348-837.266c-140.352-218.34-258.289-407.432-336.27-539.023
		c-98.438-166.67-239.774-333.34-409.374-480.527c-125.732-110.137-158.877-131.582-237.822-154.971
		c-36.064-10.723-82.852-32.168-105.273-48.73c-22.422-15.605-45.811-26.318-52.627-24.365c-6.826,2.92-23.398,20.459-36.074,39.951
		c-35.078,50.693-120.859,125.742-193.965,169.609c-104.287,61.396-266.094,79.912-341.143,39.951
		c-52.627-28.262-77.002-101.367-37.041-112.09c11.699-2.92,42.891,0.977,68.232,8.779c77.002,23.389,124.756,18.516,218.33-22.422
		c131.592-56.533,226.133-160.83,226.133-248.555c0-47.754-30.215-69.199-135.479-93.564
		c-96.504-22.422-260.254-27.295-311.904-9.746c-40.947,14.619-76.025-0.977-84.805-35.088
		c-14.619-59.463,64.336-94.551,206.641-93.574c81.875,0.977,101.367-1.953,101.367-12.676c0-39.951-348.945-321.65-550.703-444.453
		c-37.051-22.432-157.9-90.664-268.047-151.084c-110.146-60.43-335.303-187.148-501.973-281.689
		c-706.66-403.535-1038.056-538.037-1531.259-619.912c-199.814-33.145-326.523-38.984-808.027-38.984
		c-552.656,0-923.037,15.586-1310.967,54.58c-184.229,18.525-187.148,18.525-183.252,45.811
		c2.93,19.492,10.723,22.412,80.908,29.238c167.637,15.596,252.441,61.406,304.092,160.83
		c23.398,45.811,30.225,69.199,26.318,92.598c-22.412,132.549-49.707,180.322-137.422,237.822
		c-52.637,35.088-58.486,37.041-133.535,37.041c-75.059,0-83.828-2.93-160.83-43.857c-70.186-38.018-83.818-49.717-104.297-89.678
		c-12.666-25.342-27.285-76.025-33.135-112.09c-10.723-77.979-23.398-90.645-92.598-90.645c-75.049,0-140.361-23.398-230.035-82.852
		c-56.527-37.041-90.645-53.604-113.061-53.604c-103.32,0-568.247,141.328-889.902,270.957
		c-821.68,330.42-1413.315,685.215-2110.229,1265.166c-248.55,206.641-376.24,332.373-570.2,564.355
		c-89.673,107.217-194.941,230.029-232.959,272.92c-258.296,288.506-396.704,460.049-526.338,653.047
		c-202.739,303.135-355.767,641.357-451.284,999.072c-15.601,61.406-37.041,131.582-46.787,155.957
		c-9.746,24.365-41.919,120.85-72.129,214.434c-153.032,481.494-194.941,709.58-211.514,1168.662
		c-5.845,156.934-7.798,292.412-3.892,301.182c2.92,8.77,9.746,152.051,14.619,318.73c8.765,291.436,22.417,449.336,54.58,614.067
		c43.862,226.123,302.158,1357.759,327.495,1432.812c32.173,98.438,104.297,250.488,163.76,345.039
		c43.857,70.182,47.754,98.447,19.492,134.508c-10.728,13.646-19.492,35.092-19.492,46.791
		c0,63.355,350.894,814.85,476.621,1023.438c33.145,53.609,63.354,104.287,68.232,112.09
		c144.253,238.805,209.561,333.34,335.298,486.373c290.459,349.922,603.335,664.75,1170.615,1178.417
		c182.271,165.703,477.603,385.01,595.547,442.51c16.562,7.808,48.735,24.37,73.105,37.046
		c419.121,217.358,588.716,280.713,823.623,307.031c97.471,10.718,220.278,32.163,516.592,92.598
		c368.438,75.044,358.691,73.101,496.117,128.652c64.336,26.318,157.906,55.562,205.67,66.289
		c48.73,10.718,124.756,28.262,170.576,38.008c98.438,23.394,462.002,58.481,706.66,69.209
		C10974.865,16048.321,11943.723,16038.575,12187.395,16021.031z M935.427,15841.681c21.445-9.746,49.712-30.21,61.401-45.811
		c21.445-26.323,22.427-35.088,18.525-154.976c-2.925-112.09-5.845-132.563-27.29-175.444
		c-21.445-42.891-28.271-48.735-58.481-51.67c-72.134-5.84-164.731,83.833-192.021,185.195
		c-16.572,65.308-16.572,93.579,1.953,145.234c17.544,47.764,36.064,72.134,77.974,97.471
		C854.529,15865.079,884.739,15865.079,935.427,15841.681z M7074.099,15786.119c8.779-2.92,24.37-34.111,35.098-69.199
		c10.718-35.093,39.956-95.518,64.326-135.488c24.365-38.989,41.909-76.025,38.989-80.898c-2.925-4.873-34.116-22.417-68.232-38.018
		c-34.111-15.591-79.927-45.801-102.344-66.274c-66.274-58.486-78.945-93.569-88.691-240.757
		c-11.699-169.59-38.989-259.263-115.996-374.277c-58.481-87.725-76.025-105.268-307.031-314.828
		c-132.554-119.893-353.813-351.871-572.153-598.473c-101.362-114.037-234.897-293.379-361.606-485.4
		c-27.29-41.908-54.59-76.02-60.435-76.02s-18.525,13.637-27.29,29.238c-19.497,33.135-29.243,35.088-102.344,13.643
		c-29.243-8.77-63.354-12.672-76.025-9.752c-28.271,6.826-112.09,93.58-163.76,169.605
		c-66.274,94.545-326.523,402.549-372.329,439.584c-61.411,49.717-248.55,241.725-300.215,307.031
		c-33.135,42.891-88.691,108.199-121.836,146.207c-165.693,184.223-237.822,348.945-251.475,576.054
		c-6.812,106.24,9.751,202.739,43.862,248.55c28.271,38.989,91.626,78.95,135.488,84.79c36.064,4.873,42.891,1.953,73.105-30.21
		c38.984-40.938,43.857-41.909,78.945-14.619c22.417,17.544,26.318,26.318,21.445,56.528c-3.901,19.497-2.925,39.971,1.953,46.787
		c9.746,14.619,187.144,78.955,329.443,118.916c204.688,57.51,239.775,60.43,992.246,59.463c376.24,0,698.867,3.892,717.388,7.793
		c18.516,4.873,93.569,38.989,165.698,75.054c151.079,76.997,338.218,159.844,362.583,159.844
		C7051.682,15791.974,7065.334,15789.044,7074.099,15786.119z M7418.166,15341.661c40.942-19.497,67.261-37.036,63.359-42.891
		c-3.896-5.845-41.914-36.064-84.795-69.199c-42.891-32.163-132.563-103.325-197.871-157.905
		c-66.279-53.608-124.761-98.442-130.605-98.442c-14.619,0-3.901,216.377,12.671,272.92
		c25.337,84.79,116.963,140.352,218.335,132.554C7326.55,15375.772,7378.21,15360.172,7418.166,15341.661z M1222.961,15298.771
		c127.69-37.036,165.698-97.471,146.206-231.006c-9.746-69.199-24.365-87.725-45.811-57.505
		c-24.37,36.069-48.735,43.862-80.898,26.318c-43.862-22.422-65.308-17.549-93.569,18.516
		c-48.735,64.336-76.025,166.68-57.51,215.415c5.85,13.643,52.637,41.909,73.101,43.862
		C1167.405,15314.371,1193.723,15307.545,1222.961,15298.771z M1565.09,14957.623c16.562-38.008,18.511-56.528,12.666-108.188
		c-14.619-137.437-75.054-290.458-133.535-339.194c-33.145-28.271-48.735-23.393-89.673,24.371
		c-35.088,42.881-45.815,92.592-42.881,201.752c2.92,90.654,3.892,96.499,26.309,105.278
		c86.753,36.055,103.325,48.73,130.615,105.264c22.412,45.811,31.191,55.562,51.655,55.562
		C1539.739,15002.467,1548.518,14993.688,1565.09,14957.623z M1715.188,14650.592c9.746-11.699,40.938-35.082,69.209-53.607
		c70.171-44.834,76.025-58.482,74.072-179.342c-1.948-117.943-25.337-236.859-52.637-264.15
		c-35.088-35.082-110.141-12.666-171.543,51.66c-61.406,64.336-64.326,104.293-21.445,281.695
		c29.238,116.963,56.528,184.219,75.054,184.219C1692.771,14671.066,1704.47,14661.32,1715.188,14650.592z M2121.638,14160.318
		c59.453-25.336,78.95-57.51,82.852-135.488c1.953-58.48-0.972-76.025-19.492-108.188c-12.671-21.445-34.116-46.783-48.735-57.51
		l-26.318-19.492l-62.378,30.219c-68.228,34.117-138.408,101.363-149.136,144.254c-9.746,36.064,29.238,108.188,73.101,137.432
		C2009.548,14177.863,2072.903,14180.783,2121.638,14160.318z M2740.578,13505.318c121.836-60.434,170.571-204.688,110.137-322.621
		c-10.718-21.445-25.337-43.863-34.116-50.689c-19.492-16.572-61.401-6.826-115.01,27.291
		c-96.499,61.406-113.062,177.396-51.66,359.668C2656.755,13537.482,2685.017,13532.609,2740.578,13505.318z M18811.465,13401.021
		c16.582-18.516,39.961-61.406,51.66-96.488c23.398-71.152,37.043-163.75,24.375-163.75
		c-28.262-0.977-143.289-30.221-169.598-43.863c-30.227-15.6-32.168-15.6-68.234,8.77
		c-63.348,41.91-134.512,168.619-120.859,214.434c13.652,44.844,63.352,81.881,144.25,109.17
		C18732.52,13448.785,18776.387,13440.012,18811.465,13401.021z M3417.024,12881.506c35.083-18.512,84.79-79.928,91.616-115.982
		c8.774-49.717-15.591-105.277-55.562-123.789c-32.163-16.572-37.036-16.572-81.87-0.98
		c-58.481,19.492-160.825,114.043-160.825,148.158c0,61.402,80.898,123.789,146.206,112.09
		C3375.105,12897.111,3402.405,12888.332,3417.024,12881.506z M3679.211,12578.381c55.562-33.145,78.96-147.188,38.018-188.115
		c-26.318-26.318-32.163-25.352-73.101,11.684c-61.406,53.609-93.579,149.141-61.406,181.305
		C3599.284,12599.826,3646.076,12597.873,3679.211,12578.381z M3919.968,12298.635c76.025-39.957,94.546-96.494,74.072-228.082
		c-20.464-124.76-27.29-131.586-89.663-85.771c-52.642,38.018-99.424,103.326-123.789,170.572
		c-23.398,67.26-19.497,92.598,19.492,126.713C3839.069,12315.207,3877.077,12321.051,3919.968,12298.635z M4228.947,11870.738
		c16.572-41.908,11.699-114.033-10.728-169.594c-15.591-39.967-26.309-39.967-56.528,0c-32.163,41.914-51.66,98.441-60.435,171.547
		c-9.746,87.721-5.845,92.594,58.481,61.402C4202.629,11912.658,4217.248,11899.982,4228.947,11870.738z M4671.457,11362.922
		c12.671-15.592,6.826-45.811-30.21-159.854c-14.624-46.783-25.347-64.326-43.862-71.152
		c-50.688-19.492-129.634,43.861-129.634,105.268c0,28.268,26.309,79.928,61.406,117.945c16.567,17.539,30.21,21.445,76.021,21.445
		C4641.247,11376.574,4664.631,11371.701,4671.457,11362.922z M18893.352,11327.838c22.41-12.68,50.672-100.404,50.672-159.857
		c0-83.818-41.914-137.428-139.375-179.346c-24.375-10.719-55.566-33.135-69.199-49.707c-23.398-31.191-23.398-31.191-40.945-11.699
		c-17.539,18.525-17.539,20.474,1.953,52.637c16.57,25.342,21.445,53.607,25.34,131.586c4.875,110.137,26.32,170.572,71.152,206.637
		C18820.246,11339.527,18864.102,11343.43,18893.352,11327.838z M18330.938,10492.517c23.398-26.318,52.637-101.372,66.289-167.651
		c9.746-51.66,8.77-62.383-6.836-95.518c-25.332-51.66-73.094-72.134-179.336-78.96c-81.875-3.892-85.781-3.892-97.469,17.554
		c-12.676,24.365-8.781,233.931,4.871,263.169c10.723,23.389,122.812,76.997,161.797,76.997
		C18301.699,10509.089,18321.191,10502.263,18330.938,10492.517z M4429.733,8460.256
		c22.417-226.133,97.471-512.695,317.749-1201.807c176.426-553.633,280.723-764.17,558.511-1134.551
		c503.916-669.629,962.026-1155.029,1486.426-1575.117c451.284-361.621,867.485-613.095,1504.932-910.381
		c438.618-204.688,792.432-334.316,1135.532-415.215c58.48-13.652,113.066-30.225,120.863-36.064
		c10.719-8.779,12.672-25.352,7.799-64.336c-9.752-81.875-13.652-85.771-97.471-92.598c-85.771-5.85-144.258-30.215-200.786-80.898
		c-90.654-81.875-119.897-166.67-77.007-222.236c36.069-45.811,76.025-26.318,95.522,47.773
		c5.85,21.436,17.539,49.697,26.318,62.373c18.521,26.318,124.761,78.955,159.853,78.955c39.961,0,83.818-34.111,107.217-82.852
		c19.492-40.938,20.465-49.717,9.746-85.781c-6.82-22.412-28.266-56.533-48.734-76.992c-32.174-33.145-41.92-37.041-83.828-37.041
		c-48.736,0-445.439,77.979-627.705,122.812c-288.516,71.152-627.71,203.711-1008.813,393.779
		c-160.83,79.922-369.419,182.265-462.983,228.076c-282.666,136.455-483.462,271.943-934.746,633.555
		c-375.259,300.205-448.364,363.564-624.78,541.943c-235.879,237.822-448.364,501.973-579.946,722.246
		c-94.551,158.877-602.378,1191.094-651.113,1324.629c-81.865,221.25-140.352,497.1-162.764,755.391
		c-10.728,134.512-12.681,517.568-2.935,928.896C4402.443,8580.148,4413.161,8634.729,4429.733,8460.256z M16700.266,5820.764
		c0-21.445-43.859-96.494-137.434-234.902c-98.445-146.211-145.234-203.711-163.75-203.711c-19.491,0-10.723,19.492,40.938,90.645
		c29.238,38.008,95.52,134.512,148.156,214.434C16675.898,5818.82,16700.266,5848.059,16700.266,5820.764z M16352.296,5323.674
		c-10.723-8.779-27.285-29.248-36.064-46.797c-8.779-16.562-49.707-73.105-92.598-125.732
		c-122.812-153.027-132.559-160.83-162.773-115.01c-13.643,21.436-13.643,25.332-0.977,44.834
		c26.318,36.064,304.111,279.736,308.008,269.014C16369.845,5344.133,16363.019,5332.434,16352.296,5323.674z M15971.183,4956.203
		c10.732-9.746,17.549-29.238,17.549-50.684c0-31.191-14.619-51.66-124.766-176.416c-93.564-106.25-130.605-142.314-150.098-144.268
		c-45.811-5.84-135.488,70.186-123.789,103.33c7.793,22.412,324.57,284.609,343.096,284.609
		C15943.888,4972.775,15961.437,4965.949,15971.183,4956.203z M16639.836,4610.188c39.961-43.867,54.578-128.662,26.316-156.934
		c-7.801-8.77-34.109-22.422-58.477-32.168c-41.922-15.586-44.844-15.586-63.359,0.986c-23.398,21.436-24.375,35.078-3.906,92.598
		c8.781,24.365,12.676,55.547,9.746,69.199c-2.918,13.643,0,30.205,6.828,37.031
		C16574.531,4638.449,16617.422,4633.576,16639.836,4610.188z M15563.761,4539.035c35.098-35.098,64.336-69.209,64.336-77.002
		c0-20.469-46.797-78.955-157.9-200.791c-109.17-119.893-192.021-196.894-339.199-313.857
		c-50.684-40.938-112.09-94.541-136.455-119.883c-61.416-64.336-200.801-180.322-288.525-239.785
		c-81.865-54.58-928.887-513.672-1266.133-685.215c-314.833-160.82-478.583-210.527-954.237-294.355
		c-319.697-55.566-605.283-88.701-878.203-102.344c-229.053-11.699-756.367-5.85-1004.922,10.723
		c-79.922,4.873-252.441,16.562-384.023,24.365c-230.039,15.596-528.291,47.754-547.789,59.453
		c-11.693,7.803-5.854,39.961,20.469,112.09c18.521,51.66,18.521,58.486,5.85,107.217
		c-33.139,120.869-37.045,154.004-26.318,229.062c11.699,84.795,22.418,101.367,65.309,101.367
		c32.168,0,219.307-36.064,227.109-42.891c15.586-15.586-39.971-38.018-181.309-74.072c-29.238-7.803-44.83-17.549-53.604-36.064
		c-9.746-22.422-7.799-27.295,15.6-47.764c32.164-27.295,46.783-28.262,136.461-8.77c77.969,16.562,147.178,46.787,220.273,96.494
		c61.406,41.904,88.711,43.857,301.191,20.469c373.311-38.984,730.049-56.533,1220.332-56.533
		c746.611-0.977,979.57,24.365,1358.73,146.201c376.239,120.869,588.72,225.166,1461.073,722.256
		c572.158,325.547,644.277,374.287,907.451,605.293c78.955,70.176,146.201,127.686,147.188,127.686
		C15498.448,4602.385,15528.673,4574.123,15563.761,4539.035z M17254.863,4195.939c79.934-68.232,90.645-227.109,15.605-227.109
		c-38.016,0-84.805,41.914-128.66,115.02l-42.891,70.176l20.477,29.238c27.285,38.994,55.547,57.51,77.969,51.66
		C17207.109,4232.004,17233.418,4214.445,17254.863,4195.939z M17486.848,3908.401c38.984-40.938,57.508-79.932,68.23-139.385
		c11.699-60.43,0-107.217-31.191-127.686c-47.754-31.191-87.715,7.793-127.684,124.756c-12.668,38.018-23.391,77.979-23.391,88.701
		c0,17.549,60.422,84.805,76.992,84.805C17453.711,3939.592,17470.285,3924.973,17486.848,3908.401z M10440.725,3628.655
		c37.041-25.332,57.5-62.383,66.279-114.043c12.666-82.842-67.256-143.281-210.527-157.9
		c-95.537-9.746-131.592-1.943-140.361,32.178c-5.85,24.365,16.572,158.867,32.158,187.129
		c12.666,25.352,50.684,58.486,78.955,70.186C10309.143,3663.742,10405.627,3653.996,10440.725,3628.655z M17671.066,3476.604
		c30.215-19.492,61.406-85.781,62.391-128.662c0-61.396-69.219-81.875-110.156-32.158c-33.133,38.984-70.164,135.479-66.27,174.463
		C17558.008,3508.772,17636.953,3499.026,17671.066,3476.604z M10009.904,3310.91c32.168-13.652,67.256-66.289,56.533-84.804
		c-12.666-20.469-209.561,1.953-235.879,26.318c-16.562,14.619,8.779,38.008,62.383,57.5
		C9942.648,3328.449,9968,3328.449,10009.904,3310.91z M7567.307,3148.127c45.801-23.389,64.326-38.018,66.274-53.604
		c1.953-12.666-10.728-57.51-28.267-101.377c-30.215-76.025-34.116-80.898-80.898-102.344
		c-107.217-49.707-167.651-15.586-186.167,104.297c-7.803,54.58,13.643,112.09,62.378,163.75
		c27.29,29.238,35.093,32.158,67.256,27.285C7487.38,3182.249,7532.209,3165.676,7567.307,3148.127z M17826.055,3156.897
		c42.871-24.365,76.992-76.992,86.738-136.455c5.852-30.215,2.922-39.961-18.516-61.406c-17.547-17.539-31.191-22.412-46.797-18.516
		c-67.246,19.492-142.305,187.139-102.344,227.109C17761.719,3184.202,17782.188,3182.249,17826.055,3156.897z M7868.483,2995.1
		c122.817-63.359,462.983-203.711,639.409-263.164c140.352-48.74,212.485-68.232,373.311-103.32
		c27.29-6.826,28.262-35.098,0.972-59.463c-61.406-55.557-129.634-196.895-126.714-265.117
		c1.953-52.627-12.666-59.453-80.898-38.008c-42.891,13.643-61.401,14.619-109.17,5.84c-64.326-11.699-76.992-17.539-142.3-61.406
		c-52.637-34.111-70.181-74.072-79.927-177.393c-4.873-53.613-2.925-61.406,16.572-80.898
		c45.811-41.914,88.691-17.539,100.391,57.51c8.774,56.533,37.036,113.066,66.279,131.582
		c15.601,10.723,39.966,14.619,70.181,12.676c64.326-3.906,82.847-31.191,89.673-127.695c3.892-72.119,3.892-73.105-30.22-110.137
		l-35.088-38.008h-97.471c-84.8,0-99.419-1.953-111.118-18.525c-13.643-18.525-14.619-18.525-26.309,4.873
		c-24.37,47.764-73.105,112.09-106.25,140.361c-32.163,28.262-38.013,29.238-121.836,29.238
		c-76.025-0.977-95.518-3.896-137.427-26.318c-57.515-30.215-89.678-62.383-129.644-129.629
		c-22.417-38.994-33.135-48.74-51.66-46.797c-12.666,0.986-51.655,4.873-86.743,8.779c-45.811,3.896-75.054,1.953-107.217-9.746
		c-24.365-8.779-46.792-15.596-49.712-15.596c-3.896,0-7.798,34.111-10.723,77.002c-5.85,92.588-34.111,149.121-95.518,186.172
		l-40.938,24.365l5.845,48.73c17.544,159.854,18.521,188.115,1.948,239.775l-16.572,52.637l28.271,68.232
		c16.572,38.008,38.989,100.391,50.688,139.385c18.511,64.326,28.262,79.922,92.598,147.168
		c58.481,61.406,76.992,87.725,96.489,142.314c24.365,67.246,44.839,92.598,73.101,92.598
		C7788.557,3033.118,7828.522,3015.569,7868.483,2995.1z M7348.967,2784.573c60.435-35.098,72.134-55.566,60.435-104.297
		c-10.728-48.74-46.782-134.512-56.528-134.512c-3.906,0-11.699-10.723-17.554-24.365c-24.37-52.637-108.188-10.723-110.142,55.547
		c-5.845,143.291,19.497,231.992,66.279,231.992C7300.231,2808.938,7326.55,2798.206,7348.967,2784.573z M9127.8,2523.342
		c50.688-34.111,77.007-79.922,77.007-135.479c0-83.828-26.318-106.25-153.032-130.615
		c-147.183-28.262-195.918-13.643-183.242,52.637c17.544,93.574,87.725,188.115,164.722,222.236
		C9075.163,2550.637,9089.782,2548.694,9127.8,2523.342z M17963.477,2450.237c32.168-21.436,51.66-134.502,33.145-192.012
		c-12.676-37.041-46.797-58.477-77.977-48.73c-29.238,9.746-69.211,59.453-92.59,117.939c-19.5,48.73-21.445,60.43-10.73,77.002
		C17840.664,2444.397,17931.32,2472.668,17963.477,2450.237z M7322.648,2353.752c22.417-14.629,22.417-19.502,16.572-95.527
		c-7.793-101.367-38.989-205.664-65.308-220.283c-28.262-14.619-62.373,9.746-76.997,55.557
		c-21.445,63.359,0.972,218.34,37.041,260.254C7252.468,2375.198,7292.438,2375.198,7322.648,2353.752z M18004.414,2066.213
		c30.215-30.225-3.895-223.213-40.938-230.039c-26.316-5.84-35.078,14.619-35.078,81.885c0,77.969,24.367,159.854,46.777,159.854
		C17984.922,2077.913,17997.598,2073.04,18004.414,2066.213z M7444.489,1949.25c21.445-29.248,19.492-84.805-4.878-173.496
		c-26.318-99.424-75.054-195.928-104.292-206.641c-18.516-5.85-28.262-1.953-49.707,19.492
		c-23.398,23.389-28.271,37.041-34.116,106.24c-7.793,101.367,2.925,129.639,82.852,213.457
		C7399.655,1975.569,7421.101,1983.362,7444.489,1949.25z M8194.035,1907.336c69.204-33.145,105.269-148.154,70.181-222.236
		c-17.549-38.008-63.354-65.303-109.165-65.303c-75.054,0-191.05,57.5-208.594,103.32c-17.539,48.73,51.66,124.756,157.905,174.473
		C8166.75,1925.852,8156.999,1924.875,8194.035,1907.336z M7625.788,1704.592c18.511,0,60.425,3.906,93.569,7.803
		c53.608,6.816,60.43,4.873,85.771-16.572c34.111-29.238,37.036-72.129,6.821-96.494c-64.326-52.627-263.169-23.389-271.943,38.018
		c-5.845,37.031,17.554,82.842,36.064,74.072C7584.846,1706.545,7607.263,1703.616,7625.788,1704.592z M18058.996,1691.926
		c35.098-34.121,32.168-118.916-3.887-169.6c-18.527-26.318-26.32-30.215-47.766-24.365c-13.652,3.896-46.785,7.793-74.082,8.77
		l-48.73,0.977l-2.93,38.994c-4.871,60.42,5.852,99.404,38.02,131.582c25.34,24.365,37.031,29.238,77,29.238
		C18026.836,1707.522,18049.25,1701.672,18058.996,1691.926z M17999.543,974.543c10.723-13.652,21.445-46.787,23.387-73.105
		c11.699-115.01-76.023-187.139-143.27-119.883c-28.273,28.262-26.32,104.287,4.871,164.717
		c12.668,26.318,29.238,50.684,36.055,52.637C17946.906,1010.608,17981.016,999.885,17999.543,974.543z"/>
	<path fill="#F1EA69" stroke="#F1EA69" stroke-width="80" stroke-miterlimit="10" d="M7359.685,16343.653
		c-118.906-42.891-165.698-100.391-115.981-145.234c24.365-22.417,40.938-20.464,107.217,6.826
		c79.927,33.14,157.905,47.764,191.035,35.093c81.88-30.22,212.485-195.923,265.122-335.303
		c38.018-96.499,85.771-161.797,119.888-161.797c28.271,0,69.209,31.187,69.209,52.632c0,26.318-28.271,91.621-87.725,200.791
		c-118.916,218.33-200.791,317.749-289.487,350.894C7544.88,16374.845,7445.466,16373.863,7359.685,16343.653z"/>
	<path fill="#F1EA69" stroke="#F1EA69" stroke-width="80" stroke-miterlimit="10" d="M11068.43,15576.559
		c-11.689-4.873-21.436-12.666-21.436-17.544c0-25.337-51.67-39.956-190.068-54.575c-350.889-37.046-456.172-69.214-1252.49-383.066
		c-745.649-293.384-1123.843-464.926-1423.066-642.324c-166.68-99.424-455.19-300.205-521.465-363.564
		c-32.173-30.219-111.123-100.4-175.449-156.928c-167.651-146.207-468.838-443.492-582.881-574.098
		c-268.042-309.961-435.684-569.229-747.588-1155.023c-399.629-750.518-540.962-1107.266-677.417-1715.474
		c-19.497-84.8-38.018-159.858-41.919-164.731c-2.925-5.845-8.77-57.51-11.689-114.038c-3.906-56.533-13.652-124.761-22.427-151.079
		c-26.309-79.932-65.298-555.586-76.997-926.943c-13.647-457.139-4.873-1145.273,15.591-1271.982
		c36.069-222.236,115.015-401.582,296.313-668.652c54.58-80.898,99.424-150.098,99.424-153.018
		c0-11.699,445.43-677.422,514.639-770.02c207.612-276.816,323.604-402.559,798.276-867.48
		c668.652-655.986,654.033-642.334,878.213-795.371c109.17-75.049,226.133-152.051,260.249-172.52
		c35.083-19.492,126.709-76.025,203.706-125.732c219.307-140.361,313.857-190.068,424.976-225.166
		c106.24-34.111,308.975-85.771,443.491-114.033c42.881-8.77,93.569-20.469,113.062-25.342s48.734-8.77,65.307-8.77
		s145.225-17.549,286.559-38.984c141.328-20.479,366.494-49.717,500.029-63.359c190.068-19.492,245.615-29.238,253.418-40.938
		c46.787-72.129,77.979-79.932,113.066-29.238c12.666,16.572,27.285,34.111,33.145,38.008c4.873,3.896,87.725,7.803,183.242,7.803
		c185.195,0,196.895-3.906,151.074-45.811c-33.145-30.225-60.43-41.914-121.836-52.637
		c-142.314-24.375-159.854-30.215-174.473-51.66c-20.469-32.168-3.896-68.232,36.064-82.852
		c37.031-12.666,113.057-14.619,119.883-1.953c2.93,3.906,33.145,15.605,66.279,25.352c76.035,20.459,142.314,54.58,169.6,84.785
		c11.699,11.699,33.145,44.844,46.787,73.105c21.445,42.891,30.225,51.67,56.533,55.566c17.549,2.92,165.703,6.816,329.453,8.77
		c326.523,4.873,296.309,0.977,765.146,90.645c523.408,99.424,719.326,154.98,1038.056,293.388
		c639.404,279.736,888.916,423.018,1189.141,685.225c108.184,94.531,250.488,201.748,317.744,239.766
		c85.771,47.764,98.447,41.914,154.98-76.025c24.365-48.73,43.867-99.414,43.867-112.09c0-67.256-49.717-94.541-175.449-94.541
		c-83.828-0.977-99.424,1.943-145.234,26.318c-28.271,14.619-62.383,26.318-75.059,26.318c-24.365,0-42.881-24.375-42.881-57.52
		c0-21.445,63.359-79.922,112.09-102.344c59.453-28.262,264.141-12.666,361.611,28.271c43.867,18.516,72.139,64.326,81.885,133.525
		c8.77,56.543,6.816,65.312-26.318,143.291c-19.492,45.811-50.693,107.217-68.232,135.488
		c-17.539,28.252-32.158,59.453-32.158,69.199s38.008,55.557,85.771,101.367c128.662,125.732,181.289,190.068,323.604,391.836
		c71.143,102.344,185.186,257.314,252.441,346.016c350.889,461.035,430.82,577.998,561.436,815.82
		c133.525,242.705,280.702,629.668,398.644,1050.742c85.77,306.045,249.531,957.148,268.047,1068.262
		c25.34,147.178,56.531,484.434,69.207,754.424c13.633,274.863-1.953,1020.508-23.398,1145.278
		c-39.961,231.978-57.508,317.749-102.344,523.407c-73.105,331.402-196.895,680.352-313.855,886.012
		c-75.051,131.582-146.202,225.15-273.888,361.611c-221.26,236.859-380.137,437.641-591.65,748.578
		c-148.154,217.354-197.861,277.789-331.396,407.422c-103.311,99.424-144.248,128.662-436.66,316.777
		c-115.996,74.078-192.988,134.508-342.129,269.996c-145.225,130.605-260.234,213.457-401.572,286.557
		c-144.258,74.082-225.156,106.245-425.947,166.68c-123.789,38.008-204.688,69.199-333.35,132.554
		c-256.347,125.742-328.476,147.178-929.872,268.047c-287.529,57.51-625.752,120.864-750.518,140.361
		c-123.779,19.492-303.125,54.58-396.699,78.945c-93.574,23.398-177.393,44.834-185.186,46.782
		C11096.701,15582.413,11080.129,15580.46,11068.43,15576.559z M11115.227,15390.396c24.365,0,85.771,1.948,136.455,2.92
		c72.119,1.953,116.963-2.92,204.688-23.394c129.629-29.243,262.188-50.679,414.248-64.326
		c73.105-6.826,151.084-22.417,243.672-49.707c75.049-22.427,193.965-47.764,263.174-58.481
		c153.018-21.45,533.154-100.405,648.174-133.54c45.811-12.666,157.9-60.43,250.497-106.245
		c115.02-56.528,216.387-98.442,321.65-131.587c423.994-135.474,617.959-236.845,836.299-437.632
		c181.289-166.68,288.506-248.549,476.621-362.592c70.186-42.891,158.877-101.373,197.871-131.588
		c103.32-77.973,260.244-246.596,347.969-374.287c169.6-244.648,261.221-370.385,363.555-500.99
		c96.504-121.836,154.014-189.098,396.709-461.045c180.321-201.754,302.157-453.232,429.853-885.996
		c118.906-401.582,174.465-789.512,185.195-1304.15c7.793-315.811-13.652-803.164-35.098-829.482
		c-39.961-48.73-173.496-65.303-617.958-77.969c-122.812-3.896-245.625-7.803-272.92-8.77
		c-45.811-2.93-558.506-24.365-571.172-24.365c-2.93,0-22.422,13.633-42.881,29.238c-33.145,26.309-43.867,29.238-108.203,29.238
		c-68.232,0-101.357-12.676-101.357-38.984c0-22.422-38.994-29.238-77.979-13.652c-28.271,11.699-54.59,14.619-90.654,9.746
		c-155.957-18.516-175.449-18.516-248.555,5.85l-72.119,24.365l-8.779-22.412c-7.793-22.422-12.666-23.389-100.391-23.389
		c-120.869,0-136.455,10.713-139.375,99.414c-1.953,95.527-30.225,364.541-46.787,456.162
		c-46.797,245.62-135.488,527.314-228.086,721.279c-16.572,35.088-30.215,72.124-30.215,83.823c0,10.718-8.77,28.271-19.492,38.018
		s-27.295,39.956-38.018,68.228c-26.318,69.199-168.623,346.02-243.672,471.752c-269.014,453.238-605.292,774.889-1058.524,1011.738
		c-75.059,39.967-143.281,76.035-151.084,80.908c-19.492,10.719-175.439,83.818-199.805,92.598
		c-225.166,83.818-450.322,154.971-564.365,179.342c-150.107,33.139-433.74,77.002-610.156,95.518
		c-248.545,25.346-735.898,20.473-793.408-8.77c-9.746-5.85-40.947-13.648-68.232-18.521
		c-27.295-3.891-132.559-36.068-233.926-71.152c-101.377-36.064-193.975-64.326-205.664-64.326c-17.549,0-23.398,6.816-28.271,38.99
		c-5.84,35.082-24.365,75.043-110.137,233.926c-16.572,29.242-65.309,104.287-108.199,165.703
		c-87.719,124.756-190.062,286.553-331.396,524.385c-98.442,164.721-300.205,461.035-383.057,562.406
		c-26.318,32.164-98.442,125.729-161.797,207.607c-93.579,121.842-112.09,153.033-103.325,165.699
		c23.398,38.008,394.756,213.457,540.962,255.375c38.989,11.689,86.753,29.243,105.273,38.989
		c61.406,31.182,308.974,134.507,411.317,171.543c189.098,68.228,217.369,78.945,275.846,105.264
		c334.326,152.061,843.125,279.746,1042.939,262.202C11041.135,15392.345,11090.852,15389.415,11115.227,15390.396z
		 M8513.737,14482.941c17.544-13.639,345.049-446.412,405.474-536.084c22.427-33.135,60.435-82.852,83.828-109.16
		c41.914-45.816,94.551-135.488,94.551-159.854c0-5.846,14.619-27.291,32.163-46.787c42.881-49.717,71.152-94.547,138.408-222.227
		c32.163-58.486,74.072-126.715,93.569-151.084c19.492-24.365,48.734-66.285,64.326-93.574
		c14.619-27.291,61.41-99.424,102.344-160.826c101.371-150.098,208.588-357.719,196.889-377.211
		c-5.844-7.799-43.861-32.164-84.799-54.58c-143.271-76.025-249.521-159.854-415.22-327.496
		c-87.725-88.705-169.6-177.396-182.271-196.895c-12.671-19.492-52.627-72.129-88.696-115.99
		c-137.437-169.596-236.851-345.039-409.375-725.176c-166.68-365.513-289.487-744.673-344.067-1057.549
		c-29.238-171.553-42.891-518.545-39.966-1003.945c2.92-443.486,11.694-564.355,59.458-799.258
		c47.759-235.879,150.103-537.07,224.185-658.906c156.924-255.371,319.702-457.129,596.509-740.771
		c93.579-95.518,165.703-177.402,168.633-192.021c12.671-48.73-55.562-305.078-130.615-492.217
		c-10.718-27.295-107.217-242.695-213.462-477.607c-201.758-443.486-248.55-552.646-345.039-814.854
		c-38.018-101.367-61.406-181.289-66.279-225.146c-3.901-37.051-19.492-98.457-33.145-135.488
		c-13.647-36.064-25.337-75.059-25.337-83.818c0-27.305,27.29-48.74,62.373-48.74c26.318,0,35.098,5.85,52.642,37.041
		c10.718,20.459,24.365,63.35,30.21,96.484c4.873,33.145,16.572,73.105,24.365,89.678c8.779,15.605,15.605,36.064,15.605,45.811
		c0,24.375,65.293,228.086,116.963,364.541c57.5,151.084,114.033,280.713,295.332,672.549
		c181.289,394.756,260.249,595.537,311.904,789.512c16.572,63.35,25.342,82.852,38.008,81.865
		c8.779-0.967,78.955-38.984,155.951-84.795c246.607-146.211,448.365-233.936,630.641-274.863
		c56.523-12.676,153.027-34.111,214.434-48.73c303.135-69.219,1027.334-93.584,1350.938-44.844
		c652.07,98.447,1240.801,392.803,1720.351,860.654c140.352,136.465,469.805,493.213,514.639,556.562
		c77.002,110.137,235.879,427.891,235.879,470.781c0,8.779,28.262,99.424,62.383,201.768
		c35.098,103.311,70.176,224.18,77.969,269.99c23.398,124.766,35.098,310.928,35.098,537.061
		c0,242.705-6.826,230.029,124.766,214.434c112.09-13.652,864.561-13.652,1018.564,0c80.898,6.826,131.582,7.793,154.971,0.967
		c19.492-4.873,38.984-5.84,43.857-1.934c8.779,7.793,240.752,23.379,582.881,38.984c287.538,13.643,358.69,18.516,436.659,31.182
		c48.742,7.803,69.211,7.803,77.004,0c15.594-15.586-13.645-264.141-55.559-474.668
		c-29.238-146.211-229.051-879.189-338.223-1242.754c-147.177-490.283-394.745-931.816-802.177-1433.789
		c-54.58-67.246-107.217-135.479-115.986-152.051c-7.803-16.572-19.492-32.158-23.398-34.111
		c-4.873-0.986-54.58-71.152-111.113-154.98c-125.742-188.115-222.227-307.031-346.016-430.82l-96.504-94.541l-108.184-4.873
		c-97.471-3.906-115.02-6.826-168.623-34.111c-71.162-36.074-95.527-35.098-121.836,5.84c-14.619,23.398-34.121,36.064-82.852,51.66
		c-195.918,64.336-375.264-28.262-454.219-232.949c-8.77-24.365-20.459-47.764-24.365-52.637
		c-4.873-5.85-34.121,15.586-70.186,49.707c-72.119,69.209-119.883,87.715-181.289,71.152
		c-68.232-18.516-102.344-89.668-58.477-120.859c15.586-9.746,27.285-11.699,44.824-4.873c12.686,4.873,38.994,8.77,57.52,8.77
		c43.857,0,72.129-30.215,106.24-114.043c27.295-68.223,26.309-100.391-1.953-131.582c-16.572-18.525-110.137-56.533-139.375-56.533
		c-23.398,0-41.924-33.145-34.121-58.477c9.756-31.191,41.914-41.924,105.273-35.098c77.969,7.793,132.549,40.938,172.52,103.32
		c45.801,71.152,52.627,73.105,134.512,32.168c38.984-18.525,70.176-39.971,70.176-46.787c0-30.215-491.25-295.342-758.32-408.398
		c-530.233-226.133-1094.589-365.517-1695.985-419.121c-200.781-18.525-372.324-20.469-372.324-4.873
		c0,5.84,21.436,38.018,47.754,71.143c25.342,32.168,52.637,70.185,59.463,83.838c17.539,34.111,29.238,38.984,70.166,32.158
		c26.318-3.896,58.486,1.953,114.043,21.445c68.232,24.365,81.875,33.135,122.822,81.875
		c74.072,86.748,86.738,123.789,79.912,237.832c-3.887,82.842-2.92,95.518,9.746,90.645c49.717-19.502,58.486-17.549,90.654,23.389
		c43.867,55.557,74.082,68.232,159.854,68.232c118.916,0,152.051-28.271,152.051-130.615c0-46.777-2.93-55.557-29.238-77.969
		c-44.844-37.041-89.678-45.82-204.688-38.994c-95.527,5.85-103.32,4.873-120.869-13.652
		c-26.318-30.205-13.643-68.223,28.271-85.771c148.154-61.396,356.738-8.76,419.121,106.25
		c23.389,43.857,34.121,48.73,88.701,35.088c62.383-15.596,165.693-6.826,218.33,20.469
		c49.707,24.375,140.352,108.193,161.797,148.154c19.502,37.041,17.549,140.361-4.873,188.125
		c-21.445,47.754-75.049,96.484-123.789,112.09c-48.73,16.562-200.781,7.793-255.371-14.619
		c-59.453-24.375-89.668-64.336-89.668-118.916c0-53.613,20.469-80.898,60.43-80.898c22.422,0,31.191,5.84,41.914,32.158
		c26.309,63.359,51.66,72.119,178.369,67.246c45.811-1.934,52.627-4.873,71.152-33.135c32.168-51.65,20.469-111.113-29.238-154.98
		c-43.867-39.951-91.631-54.58-198.848-63.35c-80.898-6.826-80.898-6.826-109.16,69.209c-10.723,30.215-34.111,65.293-63.35,94.541
		c-38.018,37.041-57.51,46.787-103.33,56.533c-81.865,17.549-159.844,7.803-233.926-29.238
		c-66.279-32.178-99.424-66.289-108.184-109.17c-2.93-14.619-11.699-32.158-18.525-38.018
		c-14.619-11.699-10.723-13.643-91.621,47.764c-105.273,78.945-268.037,79.932-348.945,0.977
		c-16.562-16.572-37.041-50.693-45.801-77.002c-8.779-26.318-21.445-52.637-29.248-58.477
		c-7.803-5.859-59.463-14.619-115.986-18.525c-88.701-6.826-106.25-10.723-135.488-33.145
		c-43.867-33.135-66.279-81.865-78.955-177.393c-5.84-42.891-14.619-83.828-18.516-89.668c-4.873-7.793-29.248-12.676-60.43-12.676
		c-181.299,0-344.072-61.406-358.701-134.511c-8.76-41.914-42.881-78.945-85.771-89.668
		c-71.143-19.492-477.598,33.135-1163.784,151.084c-168.633,28.262-293.394,60.42-423.994,109.16
		c-124.771,46.787-275.85,122.812-341.147,172.52c-54.59,39.971-80.908,57.51-107.217,70.186
		c-61.416,30.205-407.437,263.164-594.57,400.596c-61.411,45.811-501.001,467.861-866.514,831.426
		c-167.651,166.67-336.274,349.912-410.347,443.496c-16.572,21.436-48.735,58.477-71.162,82.842
		c-68.228,74.082-141.328,177.393-345.039,487.354c-273.896,419.121-464.932,719.326-510.747,803.154
		c-72.119,134.502-124.761,306.055-145.225,473.711c-12.681,103.311-5.854,940.586,10.718,1369.453
		c34.116,890.874,209.561,1628.725,564.355,2368.529c66.279,139.381,294.355,555.582,495.146,906.471
		c209.565,366.484,396.709,606.26,741.748,951.309c269.995,269.014,523.418,480.527,787.559,658.896
		c26.318,17.549,77.974,52.637,115.02,77.973c86.743,58.482,296.304,168.633,321.655,167.652
		C8489.372,14494.641,8504.963,14489.768,8513.737,14482.941z M11160.061,12701.188c78.945-10.717,160.82-25.336,183.242-32.162
		c21.445-7.799,83.828-15.592,137.432-19.492c285.586-16.572,668.643-139.385,1079.971-345.049
		c241.729-120.859,364.531-199.814,508.799-331.402c163.75-148.148,368.437-361.611,399.628-416.191
		c14.619-26.318,39.951-59.463,54.58-73.1c57.51-49.717,339.189-584.824,437.637-828.496
		c22.422-56.543,45.811-108.198,51.66-115.996c6.826-7.793,16.572-31.191,22.422-53.608c6.816-22.417,29.238-87.725,50.684-147.178
		c64.326-178.374,112.09-432.769,128.662-686.196c11.689-180.312,10.713-821.67-0.977-941.553
		c-13.643-137.441-37.041-230.039-121.846-476.641c-129.629-382.08-207.607-514.639-451.279-772.93
		c-336.279-356.748-569.228-567.285-790.478-716.406c-125.742-83.838-342.129-192.021-472.734-235.879
		c-53.613-17.549-167.646-56.533-253.418-86.758c-158.887-54.58-313.857-93.564-462.988-115.986
		c-116.963-17.539-883.086-11.699-1018.564,7.803c-181.299,26.318-224.18,33.145-272.92,46.777
		c-26.318,7.803-94.541,23.398-151.074,35.098c-303.145,63.359-615.045,213.457-872.358,420.098
		c-146.206,117.93-412.31,395.723-571.182,598.467c-86.743,111.113-174.468,234.902-189.087,269.98
		c-6.826,17.559-32.173,66.289-56.543,107.227c-153.999,269.99-234.897,671.572-244.644,1221.309
		c-5.845,378.184,7.793,945.459,28.267,1091.665c20.469,153.018,50.679,289.478,77.979,355.767
		c11.689,29.238,28.262,76.025,37.036,102.344c7.798,27.29,27.29,85.771,40.938,131.582
		c14.624,45.806,37.036,102.344,50.679,126.714c12.681,24.365,63.354,144.253,112.09,267.06
		c168.633,425.947,271.948,596.523,592.627,975.684c69.199,81.871,139.38,154.971,157.896,164.723
		c18.521,10.723,41.919,32.162,50.688,49.711c19.492,35.088,151.074,130.605,249.525,180.322
		c81.871,41.91,331.402,136.461,443.492,168.623c110.137,32.164,201.758,51.656,350.889,75.055
		C10649.309,12728.479,10970.959,12728.479,11160.061,12701.188z M14344.415,5278.83c54.57-18.516,78.945-46.787,98.438-115.986
		c23.398-79.932,20.469-97.471-24.365-141.328c-88.701-85.781-218.33-119.902-302.158-77.979
		c-23.389,11.689-50.693,28.262-59.453,36.055c-8.779,8.779-31.191,17.549-47.764,21.445c-41.914,8.779-45.82,26.318-8.77,33.145
		c20.459,4.873,33.135,14.619,39.961,33.135c57.51,142.314,90.645,180.322,181.289,213.467
		C14270.323,5297.346,14289.825,5297.346,14344.415,5278.83z M11608.42,4583.869c69.199-32.168,101.367-95.518,86.748-172.529
		c-9.746-54.58-85.781-125.732-154.98-145.225c-49.707-14.619-57.51-14.619-77.979-1.953c-14.619,9.746-24.365,29.248-28.262,53.613
		c-3.896,20.459-17.549,52.627-31.191,71.152c-12.676,18.525-31.191,42.891-39.961,54.58
		c-14.629,20.469-13.643,24.365,27.285,77.969c23.398,31.201,53.613,61.416,66.289,68.232
		C11491.457,4607.268,11562.609,4604.328,11608.42,4583.869z M11251.682,4379.182c18.516-9.746,44.834-32.168,56.533-50.693
		c19.492-27.285,22.412-42.881,19.492-91.611c-2.92-49.717-9.746-67.256-41.914-113.076
		c-39.971-56.523-129.639-130.605-157.9-130.605c-11.699,0-20.479,14.629-29.238,42.891c-6.826,24.365-25.352,57.51-41.914,74.082
		c-32.168,34.111-37.051,65.293-14.619,108.184c7.793,15.596,14.619,39.961,14.619,54.58s6.816,44.844,16.562,67.256
		C11099.621,4407.453,11166.877,4422.072,11251.682,4379.182z M10952.443,4053.625c34.121-21.436,52.627-70.176,35.088-90.645
		c-11.699-14.619-33.135-15.596-193.955-8.77c-104.297,3.896-183.262,10.723-186.182,16.562
		c-19.492,32.178,21.445,71.162,96.504,92.598C10765.305,4079.944,10921.252,4074.094,10952.443,4053.625z"/>
	<path fill="#F1EA69" stroke="#F1EA69" stroke-width="80" stroke-miterlimit="10" d="M13318.048,5150.168
		c-56.543-7.803-144.257-43.867-184.218-75.049c-23.398-18.525-44.834-32.168-48.74-31.191
		c-71.152,36.064-89.668,40.938-157.9,40.938c-65.303,0-78.945-3.896-121.836-29.238c-53.613-34.111-71.152-68.232-56.533-109.17
		c12.666-37.041,48.74-39.971,110.137-8.779c67.266,35.098,102.344,33.145,142.314-6.826
		c76.025-76.016,63.359-263.164-20.469-301.172c-18.516-8.779-35.088-8.779-67.256,0c-52.637,13.643-99.424,5.84-113.066-19.492
		c-11.699-21.445-5.85-31.191,56.533-92.598c46.787-47.764,52.637-48.74,117.939-24.365
		c76.992,29.238,148.154,83.818,168.623,127.676c20.469,45.82,50.684,58.486,108.183,42.891
		c69.209-18.525,261.23,39.961,316.777,96.494c35.098,36.064,36.074,38.018,36.074,116.963
		c-0.977,86.748-14.629,132.568-59.453,192.021C13505.187,5121.906,13395.05,5161.867,13318.048,5150.168z M13414.542,5013.703
		c66.279-33.135,89.668-95.518,60.43-164.717c-16.572-40.938-69.199-61.406-170.576-67.256
		c-106.239-6.826-123.788,2.92-140.351,78.955c-15.596,72.119-10.723,94.541,28.262,122.812
		C13260.538,5032.229,13355.089,5044.895,13414.542,5013.703z"/>
	<path fill="#F1EA69" stroke="#F1EA69" stroke-width="80" stroke-miterlimit="10" d="M10363.723,12415.602
		c-51.66-30.209-51.66-27.289-55.557-601.391c-3.896-548.76,0.977-658.896,33.135-726.158
		c9.756-20.463,62.393-83.818,115.996-140.351c226.123-238.799,600.42-668.652,623.809-718.354
		c13.643-29.243,15.596-46.787,8.77-99.424c-32.158-240.752,6.826-315.811,202.734-400.596
		c117.949-50.693,115.996-46.797,131.592-299.238c6.816-116.963,21.445-307.031,32.168-422.041
		c11.689-115.029,26.309-330.43,33.135-477.607c9.746-215.42,15.596-273.896,29.238-300.215
		c8.779-17.549,54.59-61.406,100.391-97.471c127.695-98.447,235.889-190.068,397.686-333.34
		c80.898-71.162,198.838-171.553,263.174-222.246c155.957-123.779,187.139-153.994,215.41-208.574
		c26.318-52.637,54.58-74.082,112.09-86.758c21.445-4.873,55.557-20.459,75.049-33.135c45.811-31.191,98.447-32.168,124.766-3.896
		c16.572,18.525,18.516,36.064,17.539,188.115c-1.953,221.26-23.389,349.922-103.311,634.531
		c-14.629,48.74-63.359,232.949-109.17,409.375c-46.787,177.393-93.574,338.223-104.297,359.668
		c-21.445,40.938-51.66,73.096-560.459,587.744l-339.189,343.096l21.445,66.279c26.318,78.955,28.262,183.242,5.84,249.521
		c-29.238,84.805-122.803,167.656-240.752,211.514c-30.205,11.689-59.453,28.262-64.326,37.041
		c-4.873,8.765-11.699,93.564-14.619,187.144c-13.652,334.321-54.58,892.821-74.072,1003.944
		c-14.619,83.818-59.463,162.764-146.211,258.297c-43.857,48.734-137.432,164.717-207.617,258.295
		c-143.271,192.008-263.164,317.75-337.246,354.785C10489.465,12425.348,10399.787,12436.066,10363.723,12415.602z
		 M10504.084,12286.939c72.119-36.068,101.357-86.742,73.105-122.807c-23.398-29.244-125.742-49.717-139.385-28.271
		c-2.93,4.873-5.85,39.965-7.803,78.955c-0.977,52.627,1.953,71.152,12.676,77.979
		C10462.17,12305.461,10468.02,12305.461,10504.084,12286.939z M10461.193,11566.637c6.826-32.172,15.596-109.164,19.492-170.57
		c11.699-140.361,28.271-184.225,126.709-331.396c82.852-122.822,112.09-174.478,104.297-182.275
		c-7.793-8.774-248.545,220.283-265.117,251.475c-10.723,21.445-13.643,77.002-13.643,273.887
		C10433.898,11653.381,10439.748,11685.543,10461.193,11566.637z M11100.607,11262.531c49.697-80.898,62.373-133.535,73.096-314.829
		c10.723-178.379,28.262-626.738,24.365-631.611c-7.803-8.77-38.008,19.492-104.287,98.447
		c-99.424,116.968-100.4,147.178-4.873,187.144c59.453,24.37,61.396,43.862,21.445,154.004
		c-18.525,52.627-40.947,133.535-48.74,179.341c-16.572,92.593-20.479,383.062-5.85,383.062
		C11060.637,11318.088,11081.105,11292.74,11100.607,11262.531z M11388.137,10176.706c34.121-14.619,64.326-38.984,102.344-83.818
		l53.613-63.354v-73.105c0-70.176-0.986-74.082-33.145-106.25c-29.238-29.238-38.984-33.125-81.885-33.125
		c-54.57,0-130.596,28.252-165.693,61.396c-79.922,74.072-91.621,232.949-23.389,296.309
		C11271.174,10203.996,11323.801,10203.996,11388.137,10176.706z M11624.006,9584.094c36.074-38.018,66.289-73.105,66.289-78.955
		s-10.723-21.445-25.342-35.088c-18.516-19.492-30.215-23.389-50.693-18.516c-64.326,15.596-79.912,43.857-79.912,147.178
		c0,35.088,3.887,52.637,11.689,52.637C11552.863,9651.35,11587.951,9621.125,11624.006,9584.094z M12578.244,8168.82
		c9.746-38.984,18.525-80.898,18.525-93.564c0-12.676,19.492-99.424,43.867-192.988c34.111-133.545,45.801-200.801,54.58-311.904
		c5.84-78.965,8.77-145.234,5.84-148.164c-13.643-12.666-38.008,9.746-56.533,50.693c-32.158,74.072-48.73,175.439-57.5,365.508
		c-4.873,105.264-14.619,204.688-23.398,237.822c-8.77,32.168-18.525,86.758-21.445,121.836
		C12533.42,8282.863,12551.926,8268.244,12578.244,8168.82z M11973.928,8098.645c40.947-24.375,86.758-77.002,155.957-177.393
		c25.342-37.051,62.383-83.828,81.875-102.344c18.516-18.525,34.121-38.984,34.121-46.797c0-17.539-15.605-7.793-68.232,42.891
		c-24.365,23.398-94.551,86.758-155.947,141.338c-152.061,133.535-158.887,141.328-152.061,153.994
		C11881.34,8127.883,11936.896,8122.033,11973.928,8098.645z"/>
	<path fill="#F1EA69" stroke="#F1EA69" stroke-width="80" stroke-miterlimit="10" d="M6607.224,15442.052
		c-10.728-3.901-35.098-13.647-53.608-22.417c-39.971-18.521-155.952-41.909-272.92-56.528
		c-45.811-5.854-260.244-9.746-477.603-9.746l-394.756,0.967l-163.755-34.111c-203.706-41.914-431.792-106.25-508.789-142.305
		c-61.411-29.238-115.02-77.974-126.709-114.043c-3.906-16.572,0-28.267,18.511-46.782c30.225-30.22,39.971-30.22,88.706,0
		c95.518,57.5,139.38,75.044,298.257,115.981c331.396,86.753,534.131,107.222,934.741,97.471
		c349.912-8.765,510.737,9.751,675.469,77.007c76.992,31.191,94.546,47.754,94.546,89.673c0,28.262-4.873,36.06-25.347,43.862
		C6666.677,15451.798,6636.462,15451.798,6607.224,15442.052z"/>
	<path fill="#F1EA69" stroke="#F1EA69" stroke-width="80" stroke-miterlimit="10" d="M10004.064,17780.367
		c-108.203-46.781-404.502-154.98-614.067-225.16c-125.737-41.91-242.7-84.797-260.244-93.566
		c-116.968-64.33-173.496-104.297-241.724-173.496c-93.579-92.598-143.286-186.176-185.195-346.02
		c-27.3-101.371-111.118-332.379-149.136-406.455c-29.243-56.529-93.569-115.99-161.797-148.154
		c-68.232-32.163-91.626-65.308-73.105-101.372c25.342-47.759,46.787-46.787,153.032,5.85
		c51.655,25.342,102.344,59.453,133.535,89.678c43.862,43.862,55.552,64.325,111.113,204.688
		c34.111,85.77,78.955,217.352,100.391,292.41c51.665,182.271,84.8,246.598,166.68,328.477
		c50.684,51.656,85.771,76.027,155.952,109.156c86.743,41.918,390.849,154.008,752.476,278.773
		c145.225,49.707,181.289,66.281,212.48,95.52c37.031,36.062,46.787,75.053,24.365,97.469
		C10111.281,17805.703,10053.771,17801.812,10004.064,17780.367z"/>
	<path fill="#F1EA69" stroke="#F1EA69" stroke-width="80" stroke-miterlimit="10" d="M17790.957,14231.471
		c-19.492-5.844-63.359-32.162-96.492-58.48l-59.465-48.736l-66.277,6.822c-121.836,11.699-231.973-38.984-283.633-129.629
		c-15.598-27.291-42.891-58.486-60.43-69.215c-44.844-28.256-112.102-99.408-123.789-131.582
		c-5.852-14.623-12.676-60.424-16.574-103.314c-5.848-69.199-4.871-77.979,14.621-97.471c39.969-39.961,80.898-17.545,93.574,50.688
		c3.895,19.492,11.688,36.064,16.562,36.064c4.871,0,29.246-16.572,52.637-38.018c25.34-22.416,61.406-41.908,86.758-48.734
		c61.395-15.592,72.117-39.961,33.133-77.979c-16.57-16.568-33.133-30.211-38.008-30.211c-16.57,0-68.23-50.688-68.23-67.256
		c0-9.75,8.77-25.342,19.492-35.088c59.453-53.607,224.188,65.299,244.648,178.369c9.746,52.627,34.109,89.674,69.199,107.217
		c22.43,9.746,33.145,7.799,89.676-18.52c86.75-40.943,161.809-47.76,225.156-19.498c59.453,26.318,84.797,26.318,134.512-2.92
		c22.414-12.67,76.027-30.215,118.918-39.961c93.562-19.492,191.035-49.717,240.742-74.082c47.762-24.369,68.23-23.389,93.574,3.902
		c38.008,39.961,27.293,75.053-30.215,99.424c-40.93,16.562-43.867,29.238-21.438,93.564c19.492,55.561,37.031,67.26,96.484,67.26
		c69.211-0.98,89.68-19.496,121.836-113.07l25.352-76.998l36.055,0.973c60.43,1.953,69.211,16.572,63.359,99.424
		c-7.793,102.344-36.055,147.172-119.883,188.115c-54.59,27.285-74.082,32.162-138.418,32.162
		c-109.16,0-144.246-22.416-198.828-129.633c-34.121-67.262-62.383-82.852-130.613-74.078c-45.812,5.846-62.375,12.672-88.703,38.99
		c-30.215,30.215-32.156,37.035-32.156,96.488c0,73.105,17.547,125.742,46.785,141.334c34.113,18.525,144.25,12.67,187.141-8.766
		c20.469-10.727,39.961-23.398,43.867-29.242c2.918-4.873,21.434-9.746,38.984-9.746c25.34,0,38.008,5.844,50.672,25.336
		c14.629,22.418,14.629,29.244,1.953,66.279c-11.699,34.117-21.445,43.863-70.176,68.229
		c-52.625,26.318-65.301,28.271-170.574,29.242c-149.133,0.982-177.395-11.699-224.18-103.314
		c-27.297-52.637-33.137-76.025-37.043-145.234c-7.793-134.508-1.953-125.732-88.691-125.732c-55.555,0-85.77,4.873-116.961,20.469
		c-54.59,26.318-65.305,47.764-58.488,115.99c10.723,117.936,82.852,194.941,196.895,211.504
		c24.367,2.93,55.547,14.619,68.234,24.365c33.133,25.348,33.133,70.182,0,91.627
		C17933.262,14238.297,17838.723,14245.119,17790.957,14231.471z M17567.754,13993.648c15.586-18.525-2.93-163.76-24.363-196.889
		c-23.398-35.098-131.594-101.377-155.957-94.551c-25.344,6.826-63.352,48.734-63.352,70.18c0,9.746,8.762,34.117,19.492,55.562
		c10.715,21.436,19.492,45.801,19.492,55.547c0,8.779,14.621,33.145,31.184,52.641
		C17446.887,13996.574,17540.449,14026.783,17567.754,13993.648z"/>
</g>
</svg>
