<?xml version="1.0" encoding="utf-8"?>
<!-- Generator: Adobe Illustrator 16.0.0, SVG Export Plug-In . SVG Version: 6.00 Build 0)  -->
<!DOCTYPE svg PUBLIC "-//W3C//DTD SVG 1.1//EN" "http://www.w3.org/Graphics/SVG/1.1/DTD/svg11.dtd">
<svg version="1.1" id="Layer_1" xmlns="http://www.w3.org/2000/svg" xmlns:xlink="http://www.w3.org/1999/xlink" x="0px" y="0px"
	 width="100px" height="100px" viewBox="0 0 100 100" enable-background="new 0 0 100 100" xml:space="preserve">
<g transform="translate(0.000000,439.000000) scale(0.100000,-0.100000)">
	<path fill="#FFFFFF" d="M664.99,4342.001c-80-30-115.996-52.002-182.998-110c-52.998-46.001-70-56.001-110-60
		c-37.002-3.003-57.002,0.996-96.006,21.997c-26.992,13.999-55.996,26.001-65,26.001c-33.994,0-87.622-26.157-113.628-78.159
		c-22.998-46.997-37.935-76.562-37.935-173.564c0-153.003,41.562-190.278,172.568-267.28
		c28.994-16.992,97.998-62.998,152.998-101.992C637.988,3422.001,631.992,3425,706.992,3460.996
		c72.998,35,133.994,126.006,177.998,264.004c40,125.996,49.004,187.002,50,335c0,137.998-0.996,147.002-27.002,195
		c-40.996,77.002-67.998,97.998-135.996,102.002C733.994,4358.999,697.988,4353.999,664.99,4342.001z M736.992,4100
		c18.994-37.002,15.996-106.001-7.998-195c-19.004-74.004-60-174.004-82.002-202.998c-11.006-14.004-65,13.994-217.002,113.994
		C321.992,3887.001,281.992,3925,277.988,3960c-3.994,33.999,27.002,37.002,97.002,11.001c30.996-12.002,65-21.001,75.996-21.001
		c12.002,0,58.008,33.999,107.002,78.999c47.998,43.003,96.006,83.003,107.002,88.999C694.99,4135,722.988,4127.998,736.992,4100z"
		/>
</g>
</svg>
